<svg width="50" height="50" viewBox="0 0 50 50" fill="none" xmlns="http://www.w3.org/2000/svg">
<path d="M14.4104 30.9458L20.6458 22.8437L27.7583 28.427L33.8604 20.552" stroke="#1C274C" stroke-width="4" stroke-linecap="round" stroke-linejoin="round"/>
<path fill-rule="evenodd" clip-rule="evenodd" d="M40.9731 4.896C43.1856 4.896 44.9773 6.68766 44.9773 8.90016C44.9773 11.1106 43.1856 12.9043 40.9731 12.9043C38.7606 12.9043 36.9689 11.1106 36.9689 8.90016C36.9689 6.68766 38.7606 4.896 40.9731 4.896Z" stroke="#1C274C" stroke-width="4" stroke-linecap="round" stroke-linejoin="round"/>
<path d="M43.2406 19.3104C43.5177 21.175 43.6448 23.275 43.6448 25.6312C43.6448 40.0854 38.8281 44.9021 24.3739 44.9021C9.92178 44.9021 5.10303 40.0854 5.10303 25.6312C5.10303 11.1791 9.92178 6.36035 24.3739 6.36035C26.6864 6.36035 28.751 6.48327 30.5885 6.74993" stroke="#1C274C" stroke-width="4" stroke-linecap="round" stroke-linejoin="round"/>
</svg>
