<svg width="333" height="60" viewBox="0 0 333 60" fill="none" xmlns="http://www.w3.org/2000/svg">
<rect width="333" height="60" rx="16" fill="black"/>
<rect width="28" height="28" transform="translate(15 15)" fill="black"/>
<path d="M39.8274 36.4946C39.4216 37.4321 38.9413 38.295 38.3847 39.0884C37.6261 40.17 37.005 40.9187 36.5263 41.3344C35.7843 42.0168 34.9893 42.3663 34.1379 42.3862C33.5267 42.3862 32.7897 42.2123 31.9317 41.8595C31.0709 41.5083 30.2798 41.3344 29.5565 41.3344C28.7979 41.3344 27.9843 41.5083 27.1141 41.8595C26.2425 42.2123 25.5404 42.3961 25.0036 42.4143C24.1872 42.4491 23.3734 42.0897 22.5612 41.3344C22.0427 40.8822 21.3943 40.1071 20.6175 39.0089C19.784 37.8362 19.0988 36.4764 18.562 34.9261C17.9871 33.2515 17.6989 31.63 17.6989 30.0601C17.6989 28.2618 18.0874 26.7109 18.8657 25.4111C19.4774 24.3672 20.2912 23.5436 21.3096 22.9391C22.3281 22.3345 23.4286 22.0264 24.6137 22.0067C25.2621 22.0067 26.1125 22.2073 27.1692 22.6015C28.223 22.997 28.8996 23.1976 29.1963 23.1976C29.418 23.1976 30.1697 22.9631 31.4439 22.4955C32.6489 22.0619 33.6659 21.8823 34.499 21.9531C36.7566 22.1352 38.4526 23.0252 39.5806 24.6285C37.5615 25.8519 36.5628 27.5654 36.5826 29.7635C36.6009 31.4756 37.222 32.9004 38.4427 34.0317C38.9959 34.5567 39.6137 34.9625 40.3011 35.2507C40.152 35.683 39.9947 36.0971 39.8274 36.4946ZM34.6497 16.1201C34.6497 17.4621 34.1594 18.7151 33.1822 19.8749C32.0029 21.2536 30.5765 22.0503 29.0296 21.9246C29.0099 21.7636 28.9985 21.5941 28.9985 21.4161C28.9985 20.1278 29.5593 18.7491 30.5553 17.6218C31.0525 17.051 31.6849 16.5764 32.4518 16.1978C33.217 15.8249 33.9408 15.6186 34.6216 15.5833C34.6414 15.7627 34.6497 15.9421 34.6497 16.1201V16.1201Z" fill="white"/>
<path d="M58.86 30.02C58.86 28.66 59.1667 27.44 59.78 26.36C60.3933 25.2667 61.2267 24.4133 62.28 23.8C63.3467 23.1867 64.5267 22.88 65.82 22.88C67.34 22.88 68.6667 23.2467 69.8 23.98C70.9333 24.7133 71.76 25.7533 72.28 27.1H70.1C69.7133 26.26 69.1533 25.6133 68.42 25.16C67.7 24.7067 66.8333 24.48 65.82 24.48C64.8467 24.48 63.9733 24.7067 63.2 25.16C62.4267 25.6133 61.82 26.26 61.38 27.1C60.94 27.9267 60.72 28.9 60.72 30.02C60.72 31.1267 60.94 32.1 61.38 32.94C61.82 33.7667 62.4267 34.4067 63.2 34.86C63.9733 35.3133 64.8467 35.54 65.82 35.54C66.8333 35.54 67.7 35.32 68.42 34.88C69.1533 34.4267 69.7133 33.78 70.1 32.94H72.28C71.76 34.2733 70.9333 35.3067 69.8 36.04C68.6667 36.76 67.34 37.12 65.82 37.12C64.5267 37.12 63.3467 36.82 62.28 36.22C61.2267 35.6067 60.3933 34.76 59.78 33.68C59.1667 32.6 58.86 31.38 58.86 30.02ZM79.7692 37.18C78.7426 37.18 77.8092 36.9467 76.9692 36.48C76.1426 36.0133 75.4892 35.3533 75.0092 34.5C74.5426 33.6333 74.3092 32.6333 74.3092 31.5C74.3092 30.38 74.5492 29.3933 75.0292 28.54C75.5226 27.6733 76.1892 27.0133 77.0292 26.56C77.8692 26.0933 78.8092 25.86 79.8492 25.86C80.8892 25.86 81.8292 26.0933 82.6692 26.56C83.5092 27.0133 84.1692 27.6667 84.6492 28.52C85.1426 29.3733 85.3892 30.3667 85.3892 31.5C85.3892 32.6333 85.1359 33.6333 84.6292 34.5C84.1359 35.3533 83.4626 36.0133 82.6092 36.48C81.7559 36.9467 80.8092 37.18 79.7692 37.18ZM79.7692 35.58C80.4226 35.58 81.0359 35.4267 81.6092 35.12C82.1826 34.8133 82.6426 34.3533 82.9892 33.74C83.3492 33.1267 83.5292 32.38 83.5292 31.5C83.5292 30.62 83.3559 29.8733 83.0092 29.26C82.6626 28.6467 82.2092 28.1933 81.6492 27.9C81.0892 27.5933 80.4826 27.44 79.8292 27.44C79.1626 27.44 78.5492 27.5933 77.9892 27.9C77.4426 28.1933 77.0026 28.6467 76.6692 29.26C76.3359 29.8733 76.1692 30.62 76.1692 31.5C76.1692 32.3933 76.3292 33.1467 76.6492 33.76C76.9826 34.3733 77.4226 34.8333 77.9692 35.14C78.5159 35.4333 79.1159 35.58 79.7692 35.58ZM93.1222 25.84C94.4555 25.84 95.5355 26.2467 96.3622 27.06C97.1889 27.86 97.6022 29.02 97.6022 30.54V37H95.8022V30.8C95.8022 29.7067 95.5289 28.8733 94.9822 28.3C94.4355 27.7133 93.6889 27.42 92.7422 27.42C91.7822 27.42 91.0155 27.72 90.4422 28.32C89.8822 28.92 89.6022 29.7933 89.6022 30.94V37H87.7822V26.04H89.6022V27.6C89.9622 27.04 90.4489 26.6067 91.0622 26.3C91.6889 25.9933 92.3755 25.84 93.1222 25.84ZM102.795 27.54V34C102.795 34.5333 102.908 34.9133 103.135 35.14C103.362 35.3533 103.755 35.46 104.315 35.46H105.655V37H104.015C103.002 37 102.242 36.7667 101.735 36.3C101.228 35.8333 100.975 35.0667 100.975 34V27.54H99.5552V26.04H100.975V23.28H102.795V26.04H105.655V27.54H102.795ZM108.8 24.26C108.454 24.26 108.16 24.14 107.92 23.9C107.68 23.66 107.56 23.3667 107.56 23.02C107.56 22.6733 107.68 22.38 107.92 22.14C108.16 21.9 108.454 21.78 108.8 21.78C109.134 21.78 109.414 21.9 109.64 22.14C109.88 22.38 110 22.6733 110 23.02C110 23.3667 109.88 23.66 109.64 23.9C109.414 24.14 109.134 24.26 108.8 24.26ZM109.68 26.04V37H107.86V26.04H109.68ZM118.122 25.84C119.456 25.84 120.536 26.2467 121.362 27.06C122.189 27.86 122.602 29.02 122.602 30.54V37H120.802V30.8C120.802 29.7067 120.529 28.8733 119.982 28.3C119.436 27.7133 118.689 27.42 117.742 27.42C116.782 27.42 116.016 27.72 115.442 28.32C114.882 28.92 114.602 29.7933 114.602 30.94V37H112.782V26.04H114.602V27.6C114.962 27.04 115.449 26.6067 116.062 26.3C116.689 25.9933 117.376 25.84 118.122 25.84ZM135.295 26.04V37H133.475V35.38C133.128 35.94 132.642 36.38 132.015 36.7C131.402 37.0067 130.722 37.16 129.975 37.16C129.122 37.16 128.355 36.9867 127.675 36.64C126.995 36.28 126.455 35.7467 126.055 35.04C125.668 34.3333 125.475 33.4733 125.475 32.46V26.04H127.275V32.22C127.275 33.3 127.548 34.1333 128.095 34.72C128.642 35.2933 129.388 35.58 130.335 35.58C131.308 35.58 132.075 35.28 132.635 34.68C133.195 34.08 133.475 33.2067 133.475 32.06V26.04H135.295ZM148.368 31.1C148.368 31.4467 148.348 31.8133 148.308 32.2H139.548C139.615 33.28 139.981 34.1267 140.648 34.74C141.328 35.34 142.148 35.64 143.108 35.64C143.895 35.64 144.548 35.46 145.068 35.1C145.601 34.7267 145.975 34.2333 146.188 33.62H148.148C147.855 34.6733 147.268 35.5333 146.388 36.2C145.508 36.8533 144.415 37.18 143.108 37.18C142.068 37.18 141.135 36.9467 140.308 36.48C139.495 36.0133 138.855 35.3533 138.388 34.5C137.921 33.6333 137.688 32.6333 137.688 31.5C137.688 30.3667 137.915 29.3733 138.368 28.52C138.821 27.6667 139.455 27.0133 140.268 26.56C141.095 26.0933 142.041 25.86 143.108 25.86C144.148 25.86 145.068 26.0867 145.868 26.54C146.668 26.9933 147.281 27.62 147.708 28.42C148.148 29.2067 148.368 30.1 148.368 31.1ZM146.488 30.72C146.488 30.0267 146.335 29.4333 146.028 28.94C145.721 28.4333 145.301 28.0533 144.768 27.8C144.248 27.5333 143.668 27.4 143.028 27.4C142.108 27.4 141.321 27.6933 140.668 28.28C140.028 28.8667 139.661 29.68 139.568 30.72H146.488ZM170.703 26.04L167.283 37H165.403L162.763 28.3L160.123 37H158.243L154.803 26.04H156.663L159.183 35.24L161.903 26.04H163.763L166.423 35.26L168.903 26.04H170.703ZM173.449 24.26C173.102 24.26 172.809 24.14 172.569 23.9C172.329 23.66 172.209 23.3667 172.209 23.02C172.209 22.6733 172.329 22.38 172.569 22.14C172.809 21.9 173.102 21.78 173.449 21.78C173.782 21.78 174.062 21.9 174.289 22.14C174.529 22.38 174.649 22.6733 174.649 23.02C174.649 23.3667 174.529 23.66 174.289 23.9C174.062 24.14 173.782 24.26 173.449 24.26ZM174.329 26.04V37H172.509V26.04H174.329ZM179.651 27.54V34C179.651 34.5333 179.764 34.9133 179.991 35.14C180.217 35.3533 180.611 35.46 181.171 35.46H182.511V37H180.871C179.857 37 179.097 36.7667 178.591 36.3C178.084 35.8333 177.831 35.0667 177.831 34V27.54H176.411V26.04H177.831V23.28H179.651V26.04H182.511V27.54H179.651ZM190.156 25.84C190.982 25.84 191.729 26.02 192.396 26.38C193.062 26.7267 193.582 27.2533 193.956 27.96C194.342 28.6667 194.536 29.5267 194.536 30.54V37H192.736V30.8C192.736 29.7067 192.462 28.8733 191.916 28.3C191.369 27.7133 190.622 27.42 189.676 27.42C188.716 27.42 187.949 27.72 187.376 28.32C186.816 28.92 186.536 29.7933 186.536 30.94V37H184.716V22.2H186.536V27.6C186.896 27.04 187.389 26.6067 188.016 26.3C188.656 25.9933 189.369 25.84 190.156 25.84ZM211.081 33.9H205.001L203.881 37H201.961L207.001 23.14H209.101L214.121 37H212.201L211.081 33.9ZM210.561 32.42L208.041 25.38L205.521 32.42H210.561ZM218.137 28.06C218.497 27.4333 219.031 26.9133 219.737 26.5C220.457 26.0733 221.291 25.86 222.237 25.86C223.211 25.86 224.091 26.0933 224.877 26.56C225.677 27.0267 226.304 27.6867 226.757 28.54C227.211 29.38 227.437 30.36 227.437 31.48C227.437 32.5867 227.211 33.5733 226.757 34.44C226.304 35.3067 225.677 35.98 224.877 36.46C224.091 36.94 223.211 37.18 222.237 37.18C221.304 37.18 220.477 36.9733 219.757 36.56C219.051 36.1333 218.511 35.6067 218.137 34.98V42.2H216.317V26.04H218.137V28.06ZM225.577 31.48C225.577 30.6533 225.411 29.9333 225.077 29.32C224.744 28.7067 224.291 28.24 223.717 27.92C223.157 27.6 222.537 27.44 221.857 27.44C221.191 27.44 220.571 27.6067 219.997 27.94C219.437 28.26 218.984 28.7333 218.637 29.36C218.304 29.9733 218.137 30.6867 218.137 31.5C218.137 32.3267 218.304 33.0533 218.637 33.68C218.984 34.2933 219.437 34.7667 219.997 35.1C220.571 35.42 221.191 35.58 221.857 35.58C222.537 35.58 223.157 35.42 223.717 35.1C224.291 34.7667 224.744 34.2933 225.077 33.68C225.411 33.0533 225.577 32.32 225.577 31.48ZM231.653 28.06C232.013 27.4333 232.546 26.9133 233.253 26.5C233.973 26.0733 234.806 25.86 235.753 25.86C236.726 25.86 237.606 26.0933 238.393 26.56C239.193 27.0267 239.82 27.6867 240.273 28.54C240.726 29.38 240.953 30.36 240.953 31.48C240.953 32.5867 240.726 33.5733 240.273 34.44C239.82 35.3067 239.193 35.98 238.393 36.46C237.606 36.94 236.726 37.18 235.753 37.18C234.82 37.18 233.993 36.9733 233.273 36.56C232.566 36.1333 232.026 35.6067 231.653 34.98V42.2H229.833V26.04H231.653V28.06ZM239.093 31.48C239.093 30.6533 238.926 29.9333 238.593 29.32C238.26 28.7067 237.806 28.24 237.233 27.92C236.673 27.6 236.053 27.44 235.373 27.44C234.706 27.44 234.086 27.6067 233.513 27.94C232.953 28.26 232.5 28.7333 232.153 29.36C231.82 29.9733 231.653 30.6867 231.653 31.5C231.653 32.3267 231.82 33.0533 232.153 33.68C232.5 34.2933 232.953 34.7667 233.513 35.1C234.086 35.42 234.706 35.58 235.373 35.58C236.053 35.58 236.673 35.42 237.233 35.1C237.806 34.7667 238.26 34.2933 238.593 33.68C238.926 33.0533 239.093 32.32 239.093 31.48ZM245.169 22.2V37H243.349V22.2H245.169ZM258.27 31.1C258.27 31.4467 258.25 31.8133 258.21 32.2H249.45C249.517 33.28 249.884 34.1267 250.55 34.74C251.23 35.34 252.05 35.64 253.01 35.64C253.797 35.64 254.45 35.46 254.97 35.1C255.504 34.7267 255.877 34.2333 256.09 33.62H258.05C257.757 34.6733 257.17 35.5333 256.29 36.2C255.41 36.8533 254.317 37.18 253.01 37.18C251.97 37.18 251.037 36.9467 250.21 36.48C249.397 36.0133 248.757 35.3533 248.29 34.5C247.824 33.6333 247.59 32.6333 247.59 31.5C247.59 30.3667 247.817 29.3733 248.27 28.52C248.724 27.6667 249.357 27.0133 250.17 26.56C250.997 26.0933 251.944 25.86 253.01 25.86C254.05 25.86 254.97 26.0867 255.77 26.54C256.57 26.9933 257.184 27.62 257.61 28.42C258.05 29.2067 258.27 30.1 258.27 31.1ZM256.39 30.72C256.39 30.0267 256.237 29.4333 255.93 28.94C255.624 28.4333 255.204 28.0533 254.67 27.8C254.15 27.5333 253.57 27.4 252.93 27.4C252.01 27.4 251.224 27.6933 250.57 28.28C249.93 28.8667 249.564 29.68 249.47 30.72H256.39Z" fill="white"/>
</svg>
