<svg width="300" height="300" viewBox="0 0 300 300" fill="none" xmlns="http://www.w3.org/2000/svg">
<g clip-path="url(#clip0_28_561)">
<path d="M150 300C232.843 300 300 232.843 300 150C300 67.1573 232.843 0 150 0C67.1573 0 0 67.1573 0 150C0 232.843 67.1573 300 150 300Z" fill="#FCD063"/>
<path d="M246.244 35.0059C268.069 61.059 281.25 94.6027 281.25 131.25C281.25 214.087 214.088 281.25 131.25 281.25C94.6031 281.25 61.0594 268.068 35.0063 246.243C62.5219 279.093 103.8 300 150 300C232.838 300 300 232.837 300 150C300 103.8 279.094 62.5215 246.244 35.0059Z" fill="#F7B84E"/>
<path d="M93.75 150C104.105 150 112.5 141.605 112.5 131.25C112.5 120.895 104.105 112.5 93.75 112.5C83.3947 112.5 75 120.895 75 131.25C75 141.605 83.3947 150 93.75 150Z" fill="#C98E3F"/>
<path d="M93.75 121.875C102.478 121.875 109.744 127.866 111.834 135.938C112.228 134.428 112.5 132.881 112.5 131.25C112.5 120.9 104.1 112.5 93.75 112.5C83.4 112.5 75 120.9 75 131.25C75 132.881 75.2719 134.428 75.6656 135.938C77.7563 127.866 85.0219 121.875 93.75 121.875Z" fill="#AB7934"/>
<path d="M206.25 150C216.605 150 225 141.605 225 131.25C225 120.895 216.605 112.5 206.25 112.5C195.895 112.5 187.5 120.895 187.5 131.25C187.5 141.605 195.895 150 206.25 150Z" fill="#C98E3F"/>
<path d="M239.062 178.125C246.829 178.125 253.125 171.829 253.125 164.062C253.125 156.296 246.829 150 239.062 150C231.296 150 225 156.296 225 164.062C225 171.829 231.296 178.125 239.062 178.125Z" fill="#F7B84E"/>
<path d="M60.9375 178.125C68.704 178.125 75 171.829 75 164.062C75 156.296 68.704 150 60.9375 150C53.171 150 46.875 156.296 46.875 164.062C46.875 171.829 53.171 178.125 60.9375 178.125Z" fill="#F7B84E"/>
<path d="M206.25 121.875C214.978 121.875 222.244 127.866 224.344 135.938C224.728 134.428 225 132.881 225 131.25C225 120.9 216.6 112.5 206.25 112.5C195.9 112.5 187.5 120.9 187.5 131.25C187.5 132.881 187.772 134.428 188.156 135.938C190.256 127.866 197.522 121.875 206.25 121.875Z" fill="#AB7934"/>
<path d="M93.75 220.312C93.75 228.075 100.041 234.375 107.812 234.375C115.584 234.375 121.875 228.075 121.875 220.312C121.875 212.559 128.184 206.25 135.938 206.25H164.062C171.825 206.25 178.125 199.95 178.125 192.188C178.125 184.425 171.825 178.125 164.062 178.125H135.938C134.963 178.125 134.016 178.228 133.097 178.416C111.178 179.897 93.75 198.019 93.75 220.312Z" fill="#C98E3F"/>
<path d="M133.097 187.791C134.016 187.603 134.963 187.5 135.938 187.5H164.062C170.175 187.5 175.322 191.428 177.263 196.875C177.788 195.403 178.125 193.838 178.125 192.188C178.125 184.425 171.825 178.125 164.062 178.125H135.938C134.963 178.125 134.016 178.228 133.097 178.416C111.178 179.897 93.75 198.019 93.75 220.313C93.75 221.597 93.975 222.825 94.3031 224.016C96.9844 204.413 113.091 189.15 133.097 187.791Z" fill="#AB7934"/>
</g>
<defs>
<clipPath id="clip0_28_561">
<rect width="300" height="300" fill="white"/>
</clipPath>
</defs>
</svg>
