<svg width="50" height="50" viewBox="0 0 50 50" fill="none" xmlns="http://www.w3.org/2000/svg">
<g clip-path="url(#clip0_98_364)">
<path d="M25 49.9999C38.807 49.9999 49.9999 38.807 49.9999 25C49.9999 11.1929 38.807 0 25 0C11.1929 0 0 11.1929 0 25C0 38.807 11.1929 49.9999 25 49.9999Z" fill="#F7B239"/>
<path d="M11.865 38.1341C2.87178 29.1407 2.1631 15.0005 9.73845 5.19556C8.89931 5.84379 8.0919 6.55247 7.32219 7.32218C-2.44073 17.0851 -2.44073 32.914 7.32219 42.6768C17.0851 52.4396 32.914 52.4397 42.6768 42.6768C43.4465 41.9072 44.1551 41.0997 44.8035 40.2606C34.9987 47.836 20.8584 47.1273 11.865 38.1341Z" fill="#E09B2D"/>
<path d="M22.5587 35.5719C22.2138 35.5719 21.8826 35.3785 21.7229 35.0468C21.5011 34.5857 21.695 34.032 22.1561 33.8101C24.0164 32.915 25.9829 32.915 27.8429 33.8101C28.304 34.032 28.498 34.5858 28.276 35.0469C28.0542 35.508 27.5002 35.7019 27.0393 35.4801C25.7049 34.8379 24.2941 34.838 22.9596 35.4801C22.8303 35.5423 22.6934 35.5719 22.5587 35.5719Z" fill="#E09B2D"/>
<path d="M6.92302 40.9983C4.61974 38.695 4.61974 34.9607 6.92302 32.6575L11.0934 28.4872L15.2637 32.6575C17.5669 34.9607 17.5669 38.6951 15.2637 40.9983C12.9606 43.3015 9.2263 43.3015 6.92302 40.9983Z" fill="#2BA5F7"/>
<path d="M9.88817 40.9984C7.58499 38.6952 7.58499 34.9608 9.88817 32.6576L12.5761 29.9697L11.0935 28.4871L6.92319 32.6574C4.62001 34.9607 4.62001 38.695 6.92319 40.9982C8.45519 42.5302 10.62 43.0418 12.5761 42.5357C11.5914 42.2812 10.6594 41.7695 9.88817 40.9984Z" fill="#2197D8"/>
<path d="M16.782 14.2192C13.6188 14.3684 10.8385 16.1245 9.34439 18.9164C9.10299 19.3676 9.27301 19.9291 9.72417 20.1707C9.86343 20.2452 10.013 20.2805 10.1607 20.2805C10.4914 20.2805 10.8116 20.1029 10.9784 19.791C12.1619 17.5796 14.364 16.1888 16.8694 16.0706C17.3806 16.0464 17.7753 15.6125 17.7513 15.1013C17.7271 14.5902 17.2925 14.1932 16.782 14.2192Z" fill="#4D4D4D"/>
<path d="M33.2171 14.2192C32.7054 14.1944 32.2721 14.5898 32.2479 15.1012C32.2237 15.6125 32.6185 16.0463 33.1298 16.0704C35.6351 16.1886 37.8375 17.5794 39.0208 19.7908C39.1878 20.1029 39.5077 20.2805 39.8386 20.2805C39.9859 20.2805 40.1357 20.2451 40.275 20.1706C40.7261 19.9291 40.8962 19.3675 40.6547 18.9164C39.1608 16.1245 36.3803 14.3685 33.2171 14.2192Z" fill="#4D4D4D"/>
<path d="M30.9201 31.3412C27.6005 29.3396 22.3993 29.3396 19.0794 31.3412C18.6411 31.6054 18.5001 32.1749 18.7643 32.6131C19.0286 33.0513 19.5982 33.1924 20.0363 32.9282C22.7267 31.3061 27.2727 31.3061 29.9634 32.9282C30.113 33.0184 30.2779 33.0614 30.4409 33.0614C30.755 33.0614 31.0612 32.9016 31.2353 32.6131C31.4994 32.1749 31.3584 31.6054 30.9201 31.3412Z" fill="#4D4D4D"/>
<path d="M13.9328 19.6918C12.0424 19.6918 10.5044 21.2297 10.5044 23.1201C10.5044 25.0105 12.0424 26.5485 13.9328 26.5485C15.8231 26.5485 17.3611 25.0105 17.3611 23.1201C17.3611 21.2297 15.8231 19.6918 13.9328 19.6918Z" fill="#4D4D4D"/>
<path d="M36.0663 19.6918C34.1759 19.6918 32.6379 21.2297 32.6379 23.1201C32.6379 25.0105 34.1759 26.5485 36.0663 26.5485C37.9567 26.5485 39.4947 25.0105 39.4947 23.1201C39.4947 21.2297 37.9567 19.6918 36.0663 19.6918Z" fill="#4D4D4D"/>
</g>
<defs>
<clipPath id="clip0_98_364">
<rect width="50" height="50" fill="white"/>
</clipPath>
</defs>
</svg>
