<svg width="50" height="50" viewBox="0 0 50 50" fill="none" xmlns="http://www.w3.org/2000/svg">
<path d="M14.5833 8.33325V5.20825" stroke="#1C274C" stroke-width="2" stroke-linecap="round"/>
<path d="M35.4167 8.33325V5.20825" stroke="#1C274C" stroke-width="2" stroke-linecap="round"/>
<path d="M18.75 30.2083L21.875 27.0833V35.4166" stroke="#1C274C" stroke-width="2" stroke-linecap="round" stroke-linejoin="round"/>
<path d="M27.0833 33.3333V29.1666C27.0833 28.016 28.016 27.0833 29.1666 27.0833C30.3173 27.0833 31.25 28.016 31.25 29.1666V33.3333C31.25 34.4839 30.3173 35.4166 29.1666 35.4166C28.016 35.4166 27.0833 34.4839 27.0833 33.3333Z" stroke="#1C274C" stroke-width="2" stroke-linecap="round"/>
<path d="M44.7917 18.75H34.6354H22.3959M4.16669 18.75H12.2396" stroke="#1C274C" stroke-width="2" stroke-linecap="round"/>
<path d="M29.1667 45.8333H20.8334C12.9766 45.8333 9.04825 45.8333 6.60746 43.3924C4.16669 40.9518 4.16669 37.0233 4.16669 29.1666V24.9999C4.16669 17.1432 4.16669 13.2148 6.60746 10.774C9.04825 8.33325 12.9766 8.33325 20.8334 8.33325H29.1667C37.0234 8.33325 40.9519 8.33325 43.3925 10.774C45.8334 13.2148 45.8334 17.1432 45.8334 24.9999V29.1666C45.8334 37.0233 45.8334 40.9518 43.3925 43.3924C42.0317 44.7533 40.2086 45.3553 37.5 45.6218" stroke="#1C274C" stroke-width="2" stroke-linecap="round"/>
</svg>
