<svg width="74" height="75" viewBox="0 0 74 75" fill="none" xmlns="http://www.w3.org/2000/svg">
<path d="M27.3848 31.25L38.8018 40.0441C39.2241 40.3695 39.8275 40.3062 40.1732 39.9004L60.8552 15.625" stroke="#333333" stroke-width="4" stroke-linecap="round"/>
<path d="M63.898 37.5C63.898 43.3765 62.1057 49.1055 58.7729 53.8822C55.44 58.6589 50.734 62.2435 45.3157 64.1324C39.8975 66.0214 34.0393 66.1198 28.5638 64.4139C23.0883 62.7081 18.2706 59.2836 14.7873 54.6214C11.304 49.9592 9.33017 44.2936 9.14296 38.4202C8.95574 32.5468 10.5646 26.7607 13.7435 21.8746C16.9224 16.9884 21.5117 13.2477 26.8668 11.1776C32.222 9.10764 38.074 8.81238 43.6009 10.3333" stroke="#333333" stroke-width="4" stroke-linecap="round"/>
</svg>
