<svg width="24" height="20" viewBox="0 0 24 20" fill="none" xmlns="http://www.w3.org/2000/svg">
<path fill-rule="evenodd" clip-rule="evenodd" d="M2.57143 1.78577C1.15127 1.78577 0 2.74515 0 3.92862V16.0715C0 17.2549 1.15127 18.2143 2.57143 18.2143H21.4286C22.8487 18.2143 24 17.2549 24 16.0715V3.92862C24 2.74515 22.8487 1.78577 21.4286 1.78577H2.57143Z" fill="#8FBFFA"/>
<path fill-rule="evenodd" clip-rule="evenodd" d="M24 4.41711L12.6573 10.7197C12.4973 10.8055 12.2651 10.8667 12 10.8667C11.7349 10.8667 11.5027 10.8055 11.3427 10.7197L0 4.41711V6.5634L10.1598 12.2088L10.1698 12.2142C10.7092 12.5068 11.3569 12.6524 12 12.6524C12.6431 12.6524 13.2909 12.5068 13.8303 12.2143L24 6.56339V4.41711Z" fill="#2859C5"/>
</svg>
