<svg width="300" height="300" viewBox="0 0 300 300" fill="none" xmlns="http://www.w3.org/2000/svg">
<g clip-path="url(#clip0_28_525)">
<path d="M150 299.999C232.842 299.999 299.999 232.842 299.999 150C299.999 67.1572 232.842 0 150 0C67.1572 0 0 67.1572 0 150C0 232.842 67.1572 299.999 150 299.999Z" fill="#FDDF6D" fill-opacity="0.7"/>
<path d="M182.143 277.855C99.3006 277.855 32.1438 210.698 32.1438 127.856C32.1438 83.5958 51.3167 43.8197 81.8058 16.3634C33.2447 41.1929 0 91.7133 0 149.999C0 232.841 67.1568 299.998 149.999 299.998C188.582 299.998 223.758 285.426 250.336 261.492C229.877 271.953 206.7 277.855 182.143 277.855Z" fill="#FCC56B" fill-opacity="0.7"/>
<path d="M171.824 250.718C138.291 250.718 111.107 223.534 111.107 190.001H232.541C232.541 223.534 205.356 250.718 171.824 250.718Z" fill="#7F184C" fill-opacity="0.7"/>
<path d="M123.875 121.873C133.985 121.873 142.181 113.677 142.181 103.566C142.181 93.4559 133.985 85.2599 123.875 85.2599C113.764 85.2599 105.568 93.4559 105.568 103.566C105.568 113.677 113.764 121.873 123.875 121.873Z" fill="#7F184C" fill-opacity="0.7"/>
<path d="M226.945 121.873C237.055 121.873 245.251 113.677 245.251 103.566C245.251 93.4559 237.055 85.2599 226.945 85.2599C216.834 85.2599 208.638 93.4559 208.638 103.566C208.638 113.677 216.834 121.873 226.945 121.873Z" fill="#7F184C" fill-opacity="0.7"/>
<path d="M173.027 225.528C156.614 217.902 138.402 219.01 123.633 226.919C134.73 241.383 152.183 250.717 171.823 250.717C180.478 250.717 188.703 248.894 196.154 245.63C190.689 237.173 182.85 230.092 173.027 225.528Z" fill="#FC4C59" fill-opacity="0.7"/>
<path d="M85.5387 140.713C74.3996 140.713 65.3691 149.744 65.3691 160.883H105.71C105.708 149.744 96.6779 140.713 85.5387 140.713Z" fill="#F9A880" fill-opacity="0.7"/>
<path d="M261.474 138.01C250.334 138.01 241.304 147.041 241.304 158.18H281.644C281.644 147.041 272.614 138.01 261.474 138.01Z" fill="#F9A880" fill-opacity="0.7"/>
<path d="M127.066 190.001V199.479C127.066 203.476 130.306 206.715 134.302 206.715H211.635C215.631 206.715 218.87 203.475 218.87 199.479V190.001H127.066Z" fill="#F2F2F2" fill-opacity="0.7"/>
<path d="M211.334 50.2387C213.965 40.943 202.603 29.5886 185.957 24.8779C169.312 20.1671 153.685 23.884 151.054 33.1796C148.424 42.4753 159.785 53.8297 176.431 58.5404C193.077 63.2511 208.704 59.5343 211.334 50.2387Z" fill="#FCEB88" fill-opacity="0.7"/>
</g>
<defs>
<clipPath id="clip0_28_525">
<rect width="300" height="300" fill="white"/>
</clipPath>
</defs>
</svg>
