<svg width="50" height="50" viewBox="0 0 50 50" fill="none" xmlns="http://www.w3.org/2000/svg">
<g clip-path="url(#clip0_94_321)">
<path d="M25 49.9999C38.807 49.9999 49.9999 38.807 49.9999 25C49.9999 11.1929 38.807 0 25 0C11.1929 0 0 11.1929 0 25C0 38.807 11.1929 49.9999 25 49.9999Z" fill="#FDDF6D"/>
<path d="M30.3571 46.309C16.5501 46.309 5.35729 35.1162 5.35729 21.3092C5.35729 13.9326 8.55278 7.30322 13.6343 2.72717C5.54079 6.86543 0 15.2855 0 24.9998C0 38.8068 11.1928 49.9996 24.9999 49.9996C31.4304 49.9996 37.293 47.571 41.7227 43.5819C38.3128 45.3254 34.45 46.309 30.3571 46.309Z" fill="#FCC56B"/>
<path d="M24.0135 18.2784C23.4518 18.2784 22.9965 17.8231 22.9965 17.2614C22.9965 15.9496 21.9293 14.8824 20.6174 14.8824C19.3056 14.8824 18.2383 15.9497 18.2383 17.2614C18.2383 17.8232 17.7829 18.2784 17.2213 18.2784C16.6596 18.2784 16.2043 17.8231 16.2043 17.2614C16.2043 14.8281 18.1841 12.8484 20.6174 12.8484C23.0507 12.8484 25.0305 14.8281 25.0305 17.2614C25.0306 17.8231 24.5752 18.2784 24.0135 18.2784Z" fill="#7F184C"/>
<path d="M41.191 18.2784C40.6293 18.2784 40.174 17.8231 40.174 17.2614C40.174 15.9496 39.1068 14.8824 37.7949 14.8824C36.483 14.8824 35.4158 15.9497 35.4158 17.2614C35.4158 17.8232 34.9604 18.2784 34.3988 18.2784C33.8372 18.2784 33.3818 17.8231 33.3818 17.2614C33.3818 14.8281 35.3616 12.8484 37.7949 12.8484C40.2282 12.8484 42.208 14.8281 42.208 17.2614C42.2081 17.8231 41.7527 18.2784 41.191 18.2784Z" fill="#7F184C"/>
<path d="M28.6374 43.2693C21.4105 43.2693 15.552 37.4109 15.552 30.184H41.7228C41.7227 37.4108 35.8642 43.2693 28.6374 43.2693Z" fill="white"/>
<path d="M16.8384 35.8486C17.1832 36.5655 17.5921 37.2456 18.0563 37.8827H39.2182C39.6826 37.2456 40.0914 36.5656 40.4362 35.8486H16.8384Z" fill="#E6E6E6"/>
<path d="M14.2564 23.4521C12.3998 23.4521 10.8948 24.9572 10.8948 26.8138H17.6182C17.618 24.9572 16.1129 23.4521 14.2564 23.4521Z" fill="#F9A880"/>
<path d="M43.5789 23.4521C41.7224 23.4521 40.2173 24.9572 40.2173 26.8138H46.9407C46.9407 24.9572 45.4356 23.4521 43.5789 23.4521Z" fill="#F9A880"/>
<path d="M33.6279 8.58509C34.0663 7.03581 32.1727 5.14341 29.3984 4.35829C26.6241 3.57317 24.0197 4.19263 23.5812 5.74191C23.1428 7.29118 25.0364 9.18359 27.8107 9.96871C30.585 10.7538 33.1894 10.1344 33.6279 8.58509Z" fill="#FCEB88"/>
</g>
<defs>
<clipPath id="clip0_94_321">
<rect width="50" height="50" fill="white"/>
</clipPath>
</defs>
</svg>
