<svg width="300" height="300" viewBox="0 0 300 300" fill="none" xmlns="http://www.w3.org/2000/svg">
<g clip-path="url(#clip0_28_514)">
<path d="M150 299.999C232.842 299.999 299.999 232.842 299.999 150C299.999 67.1572 232.842 0 150 0C67.1572 0 0 67.1572 0 150C0 232.842 67.1572 299.999 150 299.999Z" fill="#FDDF6D"/>
<path d="M182.143 277.855C99.3006 277.855 32.1438 210.698 32.1438 127.855C32.1438 83.5957 51.3167 43.8196 81.8058 16.3633C33.2447 41.1928 0 91.7132 0 149.999C0 232.841 67.1568 299.998 149.999 299.998C188.582 299.998 223.758 285.426 250.336 261.492C229.877 271.952 206.7 277.855 182.143 277.855Z" fill="#FCC56B"/>
<path d="M144.081 109.671C140.71 109.671 137.979 106.939 137.979 103.569C137.979 95.6983 131.574 89.2947 123.704 89.2947C115.834 89.2947 109.43 95.6989 109.43 103.569C109.43 106.939 106.697 109.671 103.328 109.671C99.9574 109.671 97.2258 106.939 97.2258 103.569C97.2258 88.9689 109.104 77.0908 123.704 77.0908C138.304 77.0908 150.183 88.9689 150.183 103.569C150.183 106.939 147.451 109.671 144.081 109.671Z" fill="#7F184C"/>
<path d="M247.146 109.671C243.776 109.671 241.044 106.939 241.044 103.569C241.044 95.6983 234.64 89.2947 226.769 89.2947C218.899 89.2947 212.495 95.6989 212.495 103.569C212.495 106.939 209.763 109.671 206.393 109.671C203.023 109.671 200.291 106.939 200.291 103.569C200.291 88.9689 212.169 77.0908 226.769 77.0908C241.37 77.0908 253.248 88.9689 253.248 103.569C253.248 106.939 250.516 109.671 247.146 109.671Z" fill="#7F184C"/>
<path d="M177.029 236.353C160.864 236.353 145.931 227.572 138.058 213.438C136.418 210.494 137.476 206.777 140.42 205.138C143.363 203.498 147.08 204.555 148.72 207.499C154.441 217.769 165.288 224.148 177.029 224.148C188.472 224.148 199.443 217.704 205.661 207.331C207.394 204.441 211.143 203.502 214.032 205.235C216.923 206.968 217.861 210.716 216.128 213.606C207.717 227.637 192.735 236.353 177.029 236.353Z" fill="#7F184C"/>
<path d="M207.284 56.47C209.914 47.1743 198.553 35.8199 181.907 31.1092C165.261 26.3985 149.634 30.1153 147.004 39.4109C144.373 48.7066 155.735 60.061 172.381 64.7717C189.026 69.4825 204.653 65.7656 207.284 56.47Z" fill="#FCEB88"/>
<path d="M85.5387 140.714C74.3996 140.714 65.3691 149.744 65.3691 160.883H105.71C105.708 149.744 96.6779 140.714 85.5387 140.714Z" fill="#F9A880"/>
<path d="M261.474 138.011C250.334 138.011 241.303 147.041 241.303 158.18H281.643C281.644 147.041 272.614 138.011 261.474 138.011Z" fill="#F9A880"/>
</g>
<defs>
<clipPath id="clip0_28_514">
<rect width="300" height="300" fill="white"/>
</clipPath>
</defs>
</svg>
