<svg width="50" height="50" viewBox="0 0 50 50" fill="none" xmlns="http://www.w3.org/2000/svg">
<g clip-path="url(#clip0_97_333)">
<path d="M25 49.9999C38.807 49.9999 49.9999 38.807 49.9999 25C49.9999 11.1929 38.807 0 25 0C11.1929 0 0 11.1929 0 25C0 38.807 11.1929 49.9999 25 49.9999Z" fill="#FDDF6D"/>
<path d="M30.3571 46.309C16.5501 46.309 5.35729 35.1162 5.35729 21.3092C5.35729 13.9326 8.55278 7.30322 13.6343 2.72717C5.54079 6.86543 0 15.2855 0 24.9998C0 38.8068 11.1928 49.9996 24.9999 49.9996C31.4304 49.9996 37.293 47.571 41.7227 43.5819C38.3128 45.3254 34.45 46.309 30.3571 46.309Z" fill="#FCC56B"/>
<path d="M24.0135 18.2786C23.4518 18.2786 22.9965 17.8232 22.9965 17.2616C22.9965 15.9498 21.9291 14.8825 20.6174 14.8825C19.3057 14.8825 18.2383 15.9499 18.2383 17.2616C18.2383 17.8233 17.7829 18.2786 17.2213 18.2786C16.6596 18.2786 16.2043 17.8232 16.2043 17.2616C16.2043 14.8282 18.184 12.8485 20.6174 12.8485C23.0508 12.8485 25.0305 14.8282 25.0305 17.2616C25.0306 17.8232 24.5752 18.2786 24.0135 18.2786Z" fill="#7F184C"/>
<path d="M41.191 18.2786C40.6293 18.2786 40.174 17.8232 40.174 17.2616C40.174 15.9498 39.1066 14.8825 37.7949 14.8825C36.4832 14.8825 35.4158 15.9499 35.4158 17.2616C35.4158 17.8233 34.9604 18.2786 34.3988 18.2786C33.8372 18.2786 33.3818 17.8232 33.3818 17.2616C33.3818 14.8282 35.3615 12.8485 37.7949 12.8485C40.2283 12.8485 42.208 14.8282 42.208 17.2616C42.2081 17.8232 41.7527 18.2786 41.191 18.2786Z" fill="#7F184C"/>
<path d="M29.505 39.3921C26.8108 39.3921 24.3219 37.9287 23.0098 35.573C22.7365 35.0823 22.9128 34.4629 23.4034 34.1896C23.894 33.9163 24.5134 34.0926 24.7868 34.5832C25.7402 36.2949 27.5481 37.3581 29.505 37.3581C31.412 37.3581 33.2405 36.2841 34.2769 34.5552C34.5658 34.0735 35.1905 33.917 35.6721 34.2058C36.154 34.4947 36.3103 35.1193 36.0215 35.601C34.6196 37.9396 32.1226 39.3921 29.505 39.3921Z" fill="#7F184C"/>
<path d="M34.5473 9.41175C34.9858 7.86247 33.0922 5.97007 30.3179 5.18495C27.5435 4.39983 24.9391 5.01929 24.5007 6.56857C24.0622 8.11784 25.9558 10.0102 28.7301 10.7954C31.5044 11.5805 34.1089 10.961 34.5473 9.41175Z" fill="#FCEB88"/>
<path d="M14.2564 23.4521C12.3998 23.4521 10.8948 24.9572 10.8948 26.8138H17.6182C17.618 24.9572 16.1129 23.4521 14.2564 23.4521Z" fill="#F9A880"/>
<path d="M43.5788 23.0017C41.7223 23.0017 40.217 24.5068 40.217 26.3633H46.9404C46.9406 24.5068 45.4356 23.0017 43.5788 23.0017Z" fill="#F9A880"/>
</g>
<defs>
<clipPath id="clip0_97_333">
<rect width="50" height="50" fill="white"/>
</clipPath>
</defs>
</svg>
