<svg width="333" height="56" viewBox="0 0 333 56" fill="none" xmlns="http://www.w3.org/2000/svg">
<g clip-path="url(#clip0_2_13)">
<rect x="0.5" y="0.5" width="332" height="55.0876" rx="9.5" fill="white" stroke="#DADCE0"/>
<path fill-rule="evenodd" clip-rule="evenodd" d="M46.1112 27.8296C46.1112 26.8014 46.0199 25.8128 45.8504 24.8637H32.3424V30.4726H40.0613C39.7288 32.2851 38.7183 33.8208 37.1993 34.8489V38.4871H41.8345C44.5466 35.9628 46.1112 32.2455 46.1112 27.8296Z" fill="#4285F4"/>
<path fill-rule="evenodd" clip-rule="evenodd" d="M32.3424 42C36.2149 42 39.4615 40.7016 41.8345 38.4871L37.1993 34.8489C35.915 35.7189 34.2721 36.233 32.3424 36.233C28.6069 36.233 25.445 33.6823 24.3171 30.255H19.5255V34.0118C21.8854 38.7507 26.7358 42 32.3424 42Z" fill="#34A853"/>
<path fill-rule="evenodd" clip-rule="evenodd" d="M24.3172 30.2549C24.0304 29.3849 23.8674 28.4556 23.8674 27.4999C23.8674 26.5442 24.0304 25.6149 24.3172 24.7449V20.9881H19.5255C18.5541 22.9456 18 25.1601 18 27.4999C18 29.8397 18.5541 32.0542 19.5255 34.0117L24.3172 30.2549Z" fill="#FBBC05"/>
<path fill-rule="evenodd" clip-rule="evenodd" d="M32.3424 18.767C34.4482 18.767 36.3388 19.4986 37.8252 20.9355L41.9389 16.7766C39.455 14.4368 36.2084 13 32.3424 13C26.7358 13 21.8854 16.2493 19.5255 20.9882L24.3171 24.745C25.445 21.3177 28.6069 18.767 32.3424 18.767Z" fill="#EA4335"/>
<path d="M55.8689 29.02C55.8689 27.66 56.1822 26.44 56.8089 25.36C57.4489 24.28 58.3089 23.44 59.3889 22.84C60.4822 22.2267 61.6756 21.92 62.9689 21.92C64.4489 21.92 65.7622 22.2867 66.9089 23.02C68.0689 23.74 68.9089 24.7667 69.4289 26.1H66.6889C66.3289 25.3667 65.8289 24.82 65.1889 24.46C64.5489 24.1 63.8089 23.92 62.9689 23.92C62.0489 23.92 61.2289 24.1267 60.5089 24.54C59.7889 24.9533 59.2222 25.5467 58.8089 26.32C58.4089 27.0933 58.2089 27.9933 58.2089 29.02C58.2089 30.0467 58.4089 30.9467 58.8089 31.72C59.2222 32.4933 59.7889 33.0933 60.5089 33.52C61.2289 33.9333 62.0489 34.14 62.9689 34.14C63.8089 34.14 64.5489 33.96 65.1889 33.6C65.8289 33.24 66.3289 32.6933 66.6889 31.96H69.4289C68.9089 33.2933 68.0689 34.32 66.9089 35.04C65.7622 35.76 64.4489 36.12 62.9689 36.12C61.6622 36.12 60.4689 35.82 59.3889 35.22C58.3089 34.6067 57.4489 33.76 56.8089 32.68C56.1822 31.6 55.8689 30.38 55.8689 29.02ZM77.1277 36.18C76.0877 36.18 75.1477 35.9467 74.3077 35.48C73.4677 35 72.8077 34.3333 72.3277 33.48C71.8477 32.6133 71.6077 31.6133 71.6077 30.48C71.6077 29.36 71.8543 28.3667 72.3477 27.5C72.841 26.6333 73.5143 25.9667 74.3677 25.5C75.221 25.0333 76.1743 24.8 77.2277 24.8C78.281 24.8 79.2343 25.0333 80.0877 25.5C80.941 25.9667 81.6143 26.6333 82.1077 27.5C82.601 28.3667 82.8477 29.36 82.8477 30.48C82.8477 31.6 82.5943 32.5933 82.0877 33.46C81.581 34.3267 80.8877 35 80.0077 35.48C79.141 35.9467 78.181 36.18 77.1277 36.18ZM77.1277 34.2C77.7143 34.2 78.261 34.06 78.7677 33.78C79.2877 33.5 79.7077 33.08 80.0277 32.52C80.3477 31.96 80.5077 31.28 80.5077 30.48C80.5077 29.68 80.3543 29.0067 80.0477 28.46C79.741 27.9 79.3343 27.48 78.8277 27.2C78.321 26.92 77.7743 26.78 77.1877 26.78C76.601 26.78 76.0543 26.92 75.5477 27.2C75.0543 27.48 74.661 27.9 74.3677 28.46C74.0743 29.0067 73.9277 29.68 73.9277 30.48C73.9277 31.6667 74.2277 32.5867 74.8277 33.24C75.441 33.88 76.2077 34.2 77.1277 34.2ZM90.9116 24.8C91.7782 24.8 92.5516 24.98 93.2316 25.34C93.9249 25.7 94.4649 26.2333 94.8516 26.94C95.2382 27.6467 95.4316 28.5 95.4316 29.5V36H93.1716V29.84C93.1716 28.8533 92.9249 28.1 92.4316 27.58C91.9382 27.0467 91.2649 26.78 90.4116 26.78C89.5582 26.78 88.8782 27.0467 88.3716 27.58C87.8782 28.1 87.6316 28.8533 87.6316 29.84V36H85.3516V24.98H87.6316V26.24C88.0049 25.7867 88.4782 25.4333 89.0516 25.18C89.6382 24.9267 90.2582 24.8 90.9116 24.8ZM101.25 26.84V32.94C101.25 33.3533 101.343 33.6533 101.53 33.84C101.73 34.0133 102.063 34.1 102.53 34.1H103.93V36H102.13C101.103 36 100.317 35.76 99.7698 35.28C99.2232 34.8 98.9498 34.02 98.9498 32.94V26.84H97.6498V24.98H98.9498V22.24H101.25V24.98H103.93V26.84H101.25ZM107.441 23.52C107.028 23.52 106.681 23.38 106.401 23.1C106.121 22.82 105.981 22.4733 105.981 22.06C105.981 21.6467 106.121 21.3 106.401 21.02C106.681 20.74 107.028 20.6 107.441 20.6C107.841 20.6 108.181 20.74 108.461 21.02C108.741 21.3 108.881 21.6467 108.881 22.06C108.881 22.4733 108.741 22.82 108.461 23.1C108.181 23.38 107.841 23.52 107.441 23.52ZM108.561 24.98V36H106.281V24.98H108.561ZM117.365 24.8C118.231 24.8 119.005 24.98 119.685 25.34C120.378 25.7 120.918 26.2333 121.305 26.94C121.691 27.6467 121.885 28.5 121.885 29.5V36H119.625V29.84C119.625 28.8533 119.378 28.1 118.885 27.58C118.391 27.0467 117.718 26.78 116.865 26.78C116.011 26.78 115.331 27.0467 114.825 27.58C114.331 28.1 114.085 28.8533 114.085 29.84V36H111.805V24.98H114.085V26.24C114.458 25.7867 114.931 25.4333 115.505 25.18C116.091 24.9267 116.711 24.8 117.365 24.8ZM135.023 24.98V36H132.743V34.7C132.383 35.1533 131.91 35.5133 131.323 35.78C130.75 36.0333 130.136 36.16 129.483 36.16C128.616 36.16 127.836 35.98 127.143 35.62C126.463 35.26 125.923 34.7267 125.523 34.02C125.136 33.3133 124.943 32.46 124.943 31.46V24.98H127.203V31.12C127.203 32.1067 127.45 32.8667 127.943 33.4C128.436 33.92 129.11 34.18 129.963 34.18C130.816 34.18 131.49 33.92 131.983 33.4C132.49 32.8667 132.743 32.1067 132.743 31.12V24.98H135.023ZM148.381 30.22C148.381 30.6333 148.355 31.0067 148.301 31.34H139.881C139.948 32.22 140.275 32.9267 140.861 33.46C141.448 33.9933 142.168 34.26 143.021 34.26C144.248 34.26 145.115 33.7467 145.621 32.72H148.081C147.748 33.7333 147.141 34.5667 146.261 35.22C145.395 35.86 144.315 36.18 143.021 36.18C141.968 36.18 141.021 35.9467 140.181 35.48C139.355 35 138.701 34.3333 138.221 33.48C137.755 32.6133 137.521 31.6133 137.521 30.48C137.521 29.3467 137.748 28.3533 138.201 27.5C138.668 26.6333 139.315 25.9667 140.141 25.5C140.981 25.0333 141.941 24.8 143.021 24.8C144.061 24.8 144.988 25.0267 145.801 25.48C146.615 25.9333 147.248 26.5733 147.701 27.4C148.155 28.2133 148.381 29.1533 148.381 30.22ZM146.001 29.5C145.988 28.66 145.688 27.9867 145.101 27.48C144.515 26.9733 143.788 26.72 142.921 26.72C142.135 26.72 141.461 26.9733 140.901 27.48C140.341 27.9733 140.008 28.6467 139.901 29.5H146.001ZM171.12 24.98L167.7 36H165.3L163.08 27.86L160.86 36H158.46L155.02 24.98H157.34L159.64 33.84L161.98 24.98H164.36L166.6 33.8L168.88 24.98H171.12ZM174.234 23.52C173.821 23.52 173.474 23.38 173.194 23.1C172.914 22.82 172.774 22.4733 172.774 22.06C172.774 21.6467 172.914 21.3 173.194 21.02C173.474 20.74 173.821 20.6 174.234 20.6C174.634 20.6 174.974 20.74 175.254 21.02C175.534 21.3 175.674 21.6467 175.674 22.06C175.674 22.4733 175.534 22.82 175.254 23.1C174.974 23.38 174.634 23.52 174.234 23.52ZM175.354 24.98V36H173.074V24.98H175.354ZM181.258 26.84V32.94C181.258 33.3533 181.351 33.6533 181.538 33.84C181.738 34.0133 182.071 34.1 182.538 34.1H183.938V36H182.138C181.111 36 180.324 35.76 179.778 35.28C179.231 34.8 178.958 34.02 178.958 32.94V26.84H177.658V24.98H178.958V22.24H181.258V24.98H183.938V26.84H181.258ZM191.989 24.8C192.829 24.8 193.576 24.98 194.229 25.34C194.896 25.7 195.416 26.2333 195.789 26.94C196.176 27.6467 196.369 28.5 196.369 29.5V36H194.109V29.84C194.109 28.8533 193.862 28.1 193.369 27.58C192.876 27.0467 192.202 26.78 191.349 26.78C190.496 26.78 189.816 27.0467 189.309 27.58C188.816 28.1 188.569 28.8533 188.569 29.84V36H186.289V21.2H188.569V26.26C188.956 25.7933 189.442 25.4333 190.029 25.18C190.629 24.9267 191.282 24.8 191.989 24.8ZM215.033 26.1C214.673 25.4067 214.173 24.8867 213.533 24.54C212.893 24.18 212.153 24 211.313 24C210.393 24 209.573 24.2067 208.853 24.62C208.133 25.0333 207.566 25.62 207.153 26.38C206.753 27.14 206.553 28.02 206.553 29.02C206.553 30.02 206.753 30.9067 207.153 31.68C207.566 32.44 208.133 33.0267 208.853 33.44C209.573 33.8533 210.393 34.06 211.313 34.06C212.553 34.06 213.559 33.7133 214.333 33.02C215.106 32.3267 215.579 31.3867 215.753 30.2H210.533V28.38H218.193V30.16C218.046 31.24 217.659 32.2333 217.033 33.14C216.419 34.0467 215.613 34.7733 214.613 35.32C213.626 35.8533 212.526 36.12 211.313 36.12C210.006 36.12 208.813 35.82 207.733 35.22C206.653 34.6067 205.793 33.76 205.153 32.68C204.526 31.6 204.213 30.38 204.213 29.02C204.213 27.66 204.526 26.44 205.153 25.36C205.793 24.28 206.653 23.44 207.733 22.84C208.826 22.2267 210.019 21.92 211.313 21.92C212.793 21.92 214.106 22.2867 215.253 23.02C216.413 23.74 217.253 24.7667 217.773 26.1H215.033ZM225.471 36.18C224.431 36.18 223.491 35.9467 222.651 35.48C221.811 35 221.151 34.3333 220.671 33.48C220.191 32.6133 219.951 31.6133 219.951 30.48C219.951 29.36 220.198 28.3667 220.691 27.5C221.185 26.6333 221.858 25.9667 222.711 25.5C223.565 25.0333 224.518 24.8 225.571 24.8C226.625 24.8 227.578 25.0333 228.431 25.5C229.285 25.9667 229.958 26.6333 230.451 27.5C230.945 28.3667 231.191 29.36 231.191 30.48C231.191 31.6 230.938 32.5933 230.431 33.46C229.925 34.3267 229.231 35 228.351 35.48C227.485 35.9467 226.525 36.18 225.471 36.18ZM225.471 34.2C226.058 34.2 226.605 34.06 227.111 33.78C227.631 33.5 228.051 33.08 228.371 32.52C228.691 31.96 228.851 31.28 228.851 30.48C228.851 29.68 228.698 29.0067 228.391 28.46C228.085 27.9 227.678 27.48 227.171 27.2C226.665 26.92 226.118 26.78 225.531 26.78C224.945 26.78 224.398 26.92 223.891 27.2C223.398 27.48 223.005 27.9 222.711 28.46C222.418 29.0067 222.271 29.68 222.271 30.48C222.271 31.6667 222.571 32.5867 223.171 33.24C223.785 33.88 224.551 34.2 225.471 34.2ZM238.475 36.18C237.435 36.18 236.495 35.9467 235.655 35.48C234.815 35 234.155 34.3333 233.675 33.48C233.195 32.6133 232.955 31.6133 232.955 30.48C232.955 29.36 233.202 28.3667 233.695 27.5C234.189 26.6333 234.862 25.9667 235.715 25.5C236.569 25.0333 237.522 24.8 238.575 24.8C239.629 24.8 240.582 25.0333 241.435 25.5C242.289 25.9667 242.962 26.6333 243.455 27.5C243.949 28.3667 244.195 29.36 244.195 30.48C244.195 31.6 243.942 32.5933 243.435 33.46C242.929 34.3267 242.235 35 241.355 35.48C240.489 35.9467 239.529 36.18 238.475 36.18ZM238.475 34.2C239.062 34.2 239.609 34.06 240.115 33.78C240.635 33.5 241.055 33.08 241.375 32.52C241.695 31.96 241.855 31.28 241.855 30.48C241.855 29.68 241.702 29.0067 241.395 28.46C241.089 27.9 240.682 27.48 240.175 27.2C239.669 26.92 239.122 26.78 238.535 26.78C237.949 26.78 237.402 26.92 236.895 27.2C236.402 27.48 236.009 27.9 235.715 28.46C235.422 29.0067 235.275 29.68 235.275 30.48C235.275 31.6667 235.575 32.5867 236.175 33.24C236.789 33.88 237.555 34.2 238.475 34.2ZM251.139 24.8C251.993 24.8 252.746 24.9733 253.399 25.32C254.066 25.6533 254.586 26.0733 254.959 26.58V24.98H257.259V36.18C257.259 37.1933 257.046 38.0933 256.619 38.88C256.193 39.68 255.573 40.3067 254.759 40.76C253.959 41.2133 252.999 41.44 251.879 41.44C250.386 41.44 249.146 41.0867 248.159 40.38C247.173 39.6867 246.613 38.74 246.479 37.54H248.739C248.913 38.1133 249.279 38.5733 249.839 38.92C250.413 39.28 251.093 39.46 251.879 39.46C252.799 39.46 253.539 39.18 254.099 38.62C254.673 38.06 254.959 37.2467 254.959 36.18V34.34C254.573 34.86 254.046 35.3 253.379 35.66C252.726 36.0067 251.979 36.18 251.139 36.18C250.179 36.18 249.299 35.94 248.499 35.46C247.713 34.9667 247.086 34.2867 246.619 33.42C246.166 32.54 245.939 31.5467 245.939 30.44C245.939 29.3333 246.166 28.3533 246.619 27.5C247.086 26.6467 247.713 25.9867 248.499 25.52C249.299 25.04 250.179 24.8 251.139 24.8ZM254.959 30.48C254.959 29.72 254.799 29.06 254.479 28.5C254.173 27.94 253.766 27.5133 253.259 27.22C252.753 26.9267 252.206 26.78 251.619 26.78C251.033 26.78 250.486 26.9267 249.979 27.22C249.473 27.5 249.059 27.92 248.739 28.48C248.433 29.0267 248.279 29.68 248.279 30.44C248.279 31.2 248.433 31.8667 248.739 32.44C249.059 33.0133 249.473 33.4533 249.979 33.76C250.499 34.0533 251.046 34.2 251.619 34.2C252.206 34.2 252.753 34.0533 253.259 33.76C253.766 33.4667 254.173 33.04 254.479 32.48C254.799 31.9067 254.959 31.24 254.959 30.48ZM262.784 21.2V36H260.504V21.2H262.784ZM276.127 30.22C276.127 30.6333 276.101 31.0067 276.047 31.34H267.627C267.694 32.22 268.021 32.9267 268.607 33.46C269.194 33.9933 269.914 34.26 270.767 34.26C271.994 34.26 272.861 33.7467 273.367 32.72H275.827C275.494 33.7333 274.887 34.5667 274.007 35.22C273.141 35.86 272.061 36.18 270.767 36.18C269.714 36.18 268.767 35.9467 267.927 35.48C267.101 35 266.447 34.3333 265.967 33.48C265.501 32.6133 265.267 31.6133 265.267 30.48C265.267 29.3467 265.494 28.3533 265.947 27.5C266.414 26.6333 267.061 25.9667 267.887 25.5C268.727 25.0333 269.687 24.8 270.767 24.8C271.807 24.8 272.734 25.0267 273.547 25.48C274.361 25.9333 274.994 26.5733 275.447 27.4C275.901 28.2133 276.127 29.1533 276.127 30.22ZM273.747 29.5C273.734 28.66 273.434 27.9867 272.847 27.48C272.261 26.9733 271.534 26.72 270.667 26.72C269.881 26.72 269.207 26.9733 268.647 27.48C268.087 27.9733 267.754 28.6467 267.647 29.5H273.747Z" fill="#3C4043"/>
</g>
<defs>
<clipPath id="clip0_2_13">
<rect width="333" height="56" rx="16" fill="white"/>
</clipPath>
</defs>
</svg>
