<svg width="263" height="120" viewBox="0 0 263 120" fill="none" xmlns="http://www.w3.org/2000/svg">
<rect width="263" height="120" rx="32" fill="#306BF3"/>
<path d="M25.824 31.848V43H24.368V37.944H18.688V43H17.232V31.848H18.688V36.744H24.368V31.848H25.824ZM32.1341 43.144C31.3128 43.144 30.5661 42.9573 29.8941 42.584C29.2328 42.2107 28.7101 41.6827 28.3261 41C27.9528 40.3067 27.7661 39.5067 27.7661 38.6C27.7661 37.704 27.9581 36.9147 28.3421 36.232C28.7368 35.5387 29.2701 35.0107 29.9421 34.648C30.6141 34.2747 31.3661 34.088 32.1981 34.088C33.0301 34.088 33.7821 34.2747 34.4541 34.648C35.1261 35.0107 35.6541 35.5333 36.0381 36.216C36.4328 36.8987 36.6301 37.6933 36.6301 38.6C36.6301 39.5067 36.4275 40.3067 36.0221 41C35.6275 41.6827 35.0888 42.2107 34.4061 42.584C33.7235 42.9573 32.9661 43.144 32.1341 43.144ZM32.1341 41.864C32.6568 41.864 33.1475 41.7413 33.6061 41.496C34.0648 41.2507 34.4328 40.8827 34.7101 40.392C34.9981 39.9013 35.1421 39.304 35.1421 38.6C35.1421 37.896 35.0035 37.2987 34.7261 36.808C34.4488 36.3173 34.0861 35.9547 33.6381 35.72C33.1901 35.4747 32.7048 35.352 32.1821 35.352C31.6488 35.352 31.1581 35.4747 30.7101 35.72C30.2728 35.9547 29.9208 36.3173 29.6541 36.808C29.3875 37.2987 29.2541 37.896 29.2541 38.6C29.2541 39.3147 29.3821 39.9173 29.6381 40.408C29.9048 40.8987 30.2568 41.2667 30.6941 41.512C31.1315 41.7467 31.6115 41.864 32.1341 41.864ZM50.2245 34.232L47.4885 43H45.9845L43.8725 36.04L41.7605 43H40.2565L37.5045 34.232H38.9925L41.0085 41.592L43.1845 34.232H44.6725L46.8005 41.608L48.7845 34.232H50.2245ZM55.3911 38.584C55.3911 37.688 55.5725 36.904 55.9351 36.232C56.2978 35.5493 56.7938 35.0213 57.4231 34.648C58.0631 34.2747 58.7725 34.088 59.5511 34.088C60.3191 34.088 60.9858 34.2533 61.5511 34.584C62.1165 34.9147 62.5378 35.3307 62.8151 35.832V34.232H64.2871V43H62.8151V41.368C62.5271 41.88 62.0951 42.3067 61.5191 42.648C60.9538 42.9787 60.2925 43.144 59.5351 43.144C58.7565 43.144 58.0525 42.952 57.4231 42.568C56.7938 42.184 56.2978 41.6453 55.9351 40.952C55.5725 40.2587 55.3911 39.4693 55.3911 38.584ZM62.8151 38.6C62.8151 37.9387 62.6818 37.3627 62.4151 36.872C62.1485 36.3813 61.7858 36.008 61.3271 35.752C60.8791 35.4853 60.3831 35.352 59.8391 35.352C59.2951 35.352 58.7991 35.48 58.3511 35.736C57.9031 35.992 57.5458 36.3653 57.2791 36.856C57.0125 37.3467 56.8791 37.9227 56.8791 38.584C56.8791 39.256 57.0125 39.8427 57.2791 40.344C57.5458 40.8347 57.9031 41.2133 58.3511 41.48C58.7991 41.736 59.2951 41.864 59.8391 41.864C60.3831 41.864 60.8791 41.736 61.3271 41.48C61.7858 41.2133 62.1485 40.8347 62.4151 40.344C62.6818 39.8427 62.8151 39.2613 62.8151 38.6ZM68.2036 35.656C68.4596 35.1547 68.8223 34.7653 69.2916 34.488C69.7716 34.2107 70.353 34.072 71.0356 34.072V35.576H70.6516C69.0196 35.576 68.2036 36.4613 68.2036 38.232V43H66.7476V34.232H68.2036V35.656ZM80.7164 38.28C80.7164 38.5573 80.7004 38.8507 80.6684 39.16H73.6604C73.7137 40.024 74.007 40.7013 74.5404 41.192C75.0844 41.672 75.7404 41.912 76.5084 41.912C77.1377 41.912 77.6604 41.768 78.0764 41.48C78.503 41.1813 78.8017 40.7867 78.9724 40.296H80.5404C80.3057 41.1387 79.8364 41.8267 79.1324 42.36C78.4284 42.8827 77.5537 43.144 76.5084 43.144C75.6764 43.144 74.9297 42.9573 74.2684 42.584C73.6177 42.2107 73.1057 41.6827 72.7324 41C72.359 40.3067 72.1724 39.5067 72.1724 38.6C72.1724 37.6933 72.3537 36.8987 72.7164 36.216C73.079 35.5333 73.5857 35.0107 74.2364 34.648C74.8977 34.2747 75.655 34.088 76.5084 34.088C77.3404 34.088 78.0764 34.2693 78.7164 34.632C79.3564 34.9947 79.847 35.496 80.1884 36.136C80.5404 36.7653 80.7164 37.48 80.7164 38.28ZM79.2124 37.976C79.2124 37.4213 79.0897 36.9467 78.8444 36.552C78.599 36.1467 78.263 35.8427 77.8364 35.64C77.4204 35.4267 76.9564 35.32 76.4444 35.32C75.7084 35.32 75.079 35.5547 74.5564 36.024C74.0444 36.4933 73.751 37.144 73.6764 37.976H79.2124ZM94.4559 34.232L89.1759 47.128H87.6719L89.3999 42.904L85.8639 34.232H87.4799L90.2319 41.336L92.9519 34.232H94.4559ZM99.7435 43.144C98.9222 43.144 98.1755 42.9573 97.5035 42.584C96.8422 42.2107 96.3195 41.6827 95.9355 41C95.5622 40.3067 95.3755 39.5067 95.3755 38.6C95.3755 37.704 95.5675 36.9147 95.9515 36.232C96.3462 35.5387 96.8795 35.0107 97.5515 34.648C98.2235 34.2747 98.9755 34.088 99.8075 34.088C100.64 34.088 101.392 34.2747 102.064 34.648C102.736 35.0107 103.264 35.5333 103.648 36.216C104.042 36.8987 104.24 37.6933 104.24 38.6C104.24 39.5067 104.037 40.3067 103.632 41C103.237 41.6827 102.698 42.2107 102.016 42.584C101.333 42.9573 100.576 43.144 99.7435 43.144ZM99.7435 41.864C100.266 41.864 100.757 41.7413 101.216 41.496C101.674 41.2507 102.042 40.8827 102.32 40.392C102.608 39.9013 102.752 39.304 102.752 38.6C102.752 37.896 102.613 37.2987 102.336 36.808C102.058 36.3173 101.696 35.9547 101.248 35.72C100.8 35.4747 100.314 35.352 99.7915 35.352C99.2582 35.352 98.7675 35.4747 98.3195 35.72C97.8822 35.9547 97.5302 36.3173 97.2635 36.808C96.9968 37.2987 96.8635 37.896 96.8635 38.6C96.8635 39.3147 96.9915 39.9173 97.2475 40.408C97.5142 40.8987 97.8662 41.2667 98.3035 41.512C98.7408 41.7467 99.2208 41.864 99.7435 41.864ZM113.93 34.232V43H112.474V41.704C112.197 42.152 111.807 42.504 111.306 42.76C110.815 43.0053 110.271 43.128 109.674 43.128C108.991 43.128 108.378 42.9893 107.834 42.712C107.29 42.424 106.858 41.9973 106.538 41.432C106.229 40.8667 106.074 40.1787 106.074 39.368V34.232H107.514V39.176C107.514 40.04 107.733 40.7067 108.17 41.176C108.607 41.6347 109.205 41.864 109.962 41.864C110.741 41.864 111.354 41.624 111.802 41.144C112.25 40.664 112.474 39.9653 112.474 39.048V34.232H113.93ZM124.222 35.432H122.382V43H120.926V35.432H119.79V34.232H120.926V33.608C120.926 32.6267 121.177 31.912 121.678 31.464C122.19 31.0053 123.006 30.776 124.126 30.776V31.992C123.486 31.992 123.033 32.12 122.766 32.376C122.51 32.6213 122.382 33.032 122.382 33.608V34.232H124.222V35.432ZM133.92 38.28C133.92 38.5573 133.904 38.8507 133.872 39.16H126.864C126.917 40.024 127.21 40.7013 127.744 41.192C128.288 41.672 128.944 41.912 129.712 41.912C130.341 41.912 130.864 41.768 131.28 41.48C131.706 41.1813 132.005 40.7867 132.176 40.296H133.744C133.509 41.1387 133.04 41.8267 132.336 42.36C131.632 42.8827 130.757 43.144 129.712 43.144C128.88 43.144 128.133 42.9573 127.472 42.584C126.821 42.2107 126.309 41.6827 125.936 41C125.562 40.3067 125.376 39.5067 125.376 38.6C125.376 37.6933 125.557 36.8987 125.92 36.216C126.282 35.5333 126.789 35.0107 127.44 34.648C128.101 34.2747 128.858 34.088 129.712 34.088C130.544 34.088 131.28 34.2693 131.92 34.632C132.56 34.9947 133.05 35.496 133.392 36.136C133.744 36.7653 133.92 37.48 133.92 38.28ZM132.416 37.976C132.416 37.4213 132.293 36.9467 132.048 36.552C131.802 36.1467 131.466 35.8427 131.04 35.64C130.624 35.4267 130.16 35.32 129.648 35.32C128.912 35.32 128.282 35.5547 127.76 36.024C127.248 36.4933 126.954 37.144 126.88 37.976H132.416ZM143.841 38.28C143.841 38.5573 143.825 38.8507 143.793 39.16H136.785C136.839 40.024 137.132 40.7013 137.665 41.192C138.209 41.672 138.865 41.912 139.633 41.912C140.263 41.912 140.785 41.768 141.201 41.48C141.628 41.1813 141.927 40.7867 142.097 40.296H143.665C143.431 41.1387 142.961 41.8267 142.257 42.36C141.553 42.8827 140.679 43.144 139.633 43.144C138.801 43.144 138.055 42.9573 137.393 42.584C136.743 42.2107 136.231 41.6827 135.857 41C135.484 40.3067 135.297 39.5067 135.297 38.6C135.297 37.6933 135.479 36.8987 135.841 36.216C136.204 35.5333 136.711 35.0107 137.361 34.648C138.023 34.2747 138.78 34.088 139.633 34.088C140.465 34.088 141.201 34.2693 141.841 34.632C142.481 34.9947 142.972 35.496 143.313 36.136C143.665 36.7653 143.841 37.48 143.841 38.28ZM142.337 37.976C142.337 37.4213 142.215 36.9467 141.969 36.552C141.724 36.1467 141.388 35.8427 140.961 35.64C140.545 35.4267 140.081 35.32 139.569 35.32C138.833 35.32 138.204 35.5547 137.681 36.024C137.169 36.4933 136.876 37.144 136.801 37.976H142.337ZM147.219 31.16V43H145.763V31.16H147.219ZM150.453 32.808C150.175 32.808 149.941 32.712 149.749 32.52C149.557 32.328 149.461 32.0933 149.461 31.816C149.461 31.5387 149.557 31.304 149.749 31.112C149.941 30.92 150.175 30.824 150.453 30.824C150.719 30.824 150.943 30.92 151.125 31.112C151.317 31.304 151.413 31.5387 151.413 31.816C151.413 32.0933 151.317 32.328 151.125 32.52C150.943 32.712 150.719 32.808 150.453 32.808ZM151.157 34.232V43H149.701V34.232H151.157ZM157.91 34.072C158.977 34.072 159.841 34.3973 160.502 35.048C161.164 35.688 161.494 36.616 161.494 37.832V43H160.054V38.04C160.054 37.1653 159.836 36.4987 159.398 36.04C158.961 35.5707 158.364 35.336 157.606 35.336C156.838 35.336 156.225 35.576 155.766 36.056C155.318 36.536 155.094 37.2347 155.094 38.152V43H153.638V34.232H155.094V35.48C155.382 35.032 155.772 34.6853 156.262 34.44C156.764 34.1947 157.313 34.072 157.91 34.072ZM167.489 34.088C168.246 34.088 168.907 34.2533 169.473 34.584C170.049 34.9147 170.475 35.3307 170.753 35.832V34.232H172.225V43.192C172.225 43.992 172.054 44.7013 171.713 45.32C171.371 45.9493 170.881 46.44 170.241 46.792C169.611 47.144 168.875 47.32 168.033 47.32C166.881 47.32 165.921 47.048 165.153 46.504C164.385 45.96 163.931 45.2187 163.793 44.28H165.233C165.393 44.8133 165.723 45.24 166.225 45.56C166.726 45.8907 167.329 46.056 168.033 46.056C168.833 46.056 169.483 45.8053 169.985 45.304C170.497 44.8027 170.753 44.0987 170.753 43.192V41.352C170.465 41.864 170.038 42.2907 169.473 42.632C168.907 42.9733 168.246 43.144 167.489 43.144C166.71 43.144 166.001 42.952 165.361 42.568C164.731 42.184 164.235 41.6453 163.873 40.952C163.51 40.2587 163.329 39.4693 163.329 38.584C163.329 37.688 163.51 36.904 163.873 36.232C164.235 35.5493 164.731 35.0213 165.361 34.648C166.001 34.2747 166.71 34.088 167.489 34.088ZM170.753 38.6C170.753 37.9387 170.619 37.3627 170.353 36.872C170.086 36.3813 169.723 36.008 169.265 35.752C168.817 35.4853 168.321 35.352 167.777 35.352C167.233 35.352 166.737 35.48 166.289 35.736C165.841 35.992 165.483 36.3653 165.217 36.856C164.95 37.3467 164.817 37.9227 164.817 38.584C164.817 39.256 164.95 39.8427 165.217 40.344C165.483 40.8347 165.841 41.2133 166.289 41.48C166.737 41.736 167.233 41.864 167.777 41.864C168.321 41.864 168.817 41.736 169.265 41.48C169.723 41.2133 170.086 40.8347 170.353 40.344C170.619 39.8427 170.753 39.2613 170.753 38.6ZM177.533 31.704C178.589 31.704 179.442 32.0027 180.093 32.6C180.744 33.1973 181.069 33.9973 181.069 35C181.069 36.12 180.722 36.952 180.029 37.496C179.336 38.0293 178.397 38.296 177.213 38.296L177.165 39.816H175.901L175.837 37.288H176.301C177.357 37.288 178.184 37.128 178.781 36.808C179.378 36.488 179.677 35.8853 179.677 35C179.677 34.36 179.485 33.8533 179.101 33.48C178.717 33.1067 178.2 32.92 177.549 32.92C176.888 32.92 176.365 33.1013 175.981 33.464C175.608 33.816 175.421 34.3013 175.421 34.92H174.045C174.045 34.28 174.189 33.72 174.477 33.24C174.765 32.7493 175.17 32.3707 175.693 32.104C176.226 31.8373 176.84 31.704 177.533 31.704ZM176.525 43.096C176.248 43.096 176.013 43 175.821 42.808C175.629 42.616 175.533 42.3813 175.533 42.104C175.533 41.8267 175.629 41.592 175.821 41.4C176.013 41.208 176.248 41.112 176.525 41.112C176.792 41.112 177.016 41.208 177.197 41.4C177.389 41.592 177.485 41.8267 177.485 42.104C177.485 42.3813 177.389 42.616 177.197 42.808C177.016 43 176.792 43.096 176.525 43.096Z" fill="white"/>
<rect x="16" y="60" width="219" height="34" rx="17" fill="white"/>
<path d="M36.436 72.636L34.012 81H32.788L30.844 74.268L28.828 81L27.616 81.012L25.276 72.636H26.44L28.264 79.728L30.28 72.636H31.504L33.424 79.704L35.26 72.636H36.436ZM40.895 74.304C41.391 74.304 41.839 74.412 42.239 74.628C42.639 74.836 42.951 75.152 43.175 75.576C43.407 76 43.523 76.516 43.523 77.124V81H42.443V77.28C42.443 76.624 42.279 76.124 41.951 75.78C41.623 75.428 41.175 75.252 40.607 75.252C40.031 75.252 39.571 75.432 39.227 75.792C38.891 76.152 38.723 76.676 38.723 77.364V81H37.631V72.12H38.723V75.36C38.939 75.024 39.235 74.764 39.611 74.58C39.995 74.396 40.423 74.304 40.895 74.304ZM44.8988 77.688C44.8988 77.016 45.0348 76.428 45.3068 75.924C45.5788 75.412 45.9508 75.016 46.4228 74.736C46.9028 74.456 47.4348 74.316 48.0188 74.316C48.5948 74.316 49.0948 74.44 49.5188 74.688C49.9428 74.936 50.2588 75.248 50.4668 75.624V74.424H51.5708V81H50.4668V79.776C50.2508 80.16 49.9268 80.48 49.4948 80.736C49.0708 80.984 48.5748 81.108 48.0068 81.108C47.4228 81.108 46.8948 80.964 46.4228 80.676C45.9508 80.388 45.5788 79.984 45.3068 79.464C45.0348 78.944 44.8988 78.352 44.8988 77.688ZM50.4668 77.7C50.4668 77.204 50.3668 76.772 50.1668 76.404C49.9668 76.036 49.6948 75.756 49.3508 75.564C49.0148 75.364 48.6428 75.264 48.2348 75.264C47.8268 75.264 47.4548 75.36 47.1188 75.552C46.7828 75.744 46.5148 76.024 46.3148 76.392C46.1148 76.76 46.0148 77.192 46.0148 77.688C46.0148 78.192 46.1148 78.632 46.3148 79.008C46.5148 79.376 46.7828 79.66 47.1188 79.86C47.4548 80.052 47.8268 80.148 48.2348 80.148C48.6428 80.148 49.0148 80.052 49.3508 79.86C49.6948 79.66 49.9668 79.376 50.1668 79.008C50.3668 78.632 50.4668 78.196 50.4668 77.7ZM54.7482 75.324V79.2C54.7482 79.52 54.8162 79.748 54.9522 79.884C55.0882 80.012 55.3242 80.076 55.6602 80.076H56.4642V81H55.4802C54.8722 81 54.4162 80.86 54.1122 80.58C53.8082 80.3 53.6562 79.84 53.6562 79.2V75.324H52.8042V74.424H53.6562V72.768H54.7482V74.424H56.4642V75.324H54.7482ZM57.9553 72.636H59.1673L58.0153 75.36H57.2473L57.9553 72.636ZM62.7403 81.108C62.2363 81.108 61.7843 81.024 61.3843 80.856C60.9843 80.68 60.6683 80.44 60.4363 80.136C60.2043 79.824 60.0763 79.468 60.0523 79.068H61.1803C61.2123 79.396 61.3643 79.664 61.6363 79.872C61.9163 80.08 62.2803 80.184 62.7283 80.184C63.1443 80.184 63.4723 80.092 63.7123 79.908C63.9523 79.724 64.0723 79.492 64.0723 79.212C64.0723 78.924 63.9443 78.712 63.6883 78.576C63.4323 78.432 63.0363 78.292 62.5003 78.156C62.0123 78.028 61.6123 77.9 61.3003 77.772C60.9963 77.636 60.7323 77.44 60.5083 77.184C60.2923 76.92 60.1843 76.576 60.1843 76.152C60.1843 75.816 60.2843 75.508 60.4843 75.228C60.6843 74.948 60.9683 74.728 61.3363 74.568C61.7043 74.4 62.1243 74.316 62.5963 74.316C63.3243 74.316 63.9123 74.5 64.3603 74.868C64.8083 75.236 65.0483 75.74 65.0803 76.38H63.9883C63.9643 76.036 63.8243 75.76 63.5683 75.552C63.3203 75.344 62.9843 75.24 62.5603 75.24C62.1683 75.24 61.8563 75.324 61.6243 75.492C61.3923 75.66 61.2763 75.88 61.2763 76.152C61.2763 76.368 61.3443 76.548 61.4803 76.692C61.6243 76.828 61.8003 76.94 62.0083 77.028C62.2243 77.108 62.5203 77.2 62.8963 77.304C63.3683 77.432 63.7523 77.56 64.0483 77.688C64.3443 77.808 64.5963 77.992 64.8043 78.24C65.0203 78.488 65.1323 78.812 65.1403 79.212C65.1403 79.572 65.0403 79.896 64.8403 80.184C64.6403 80.472 64.3563 80.7 63.9883 80.868C63.6283 81.028 63.2123 81.108 62.7403 81.108ZM72.749 81.108C72.133 81.108 71.573 80.968 71.069 80.688C70.573 80.408 70.181 80.012 69.893 79.5C69.613 78.98 69.473 78.38 69.473 77.7C69.473 77.028 69.617 76.436 69.905 75.924C70.201 75.404 70.601 75.008 71.105 74.736C71.609 74.456 72.173 74.316 72.797 74.316C73.421 74.316 73.985 74.456 74.489 74.736C74.993 75.008 75.389 75.4 75.677 75.912C75.973 76.424 76.121 77.02 76.121 77.7C76.121 78.38 75.969 78.98 75.665 79.5C75.369 80.012 74.965 80.408 74.453 80.688C73.941 80.968 73.373 81.108 72.749 81.108ZM72.749 80.148C73.141 80.148 73.509 80.056 73.853 79.872C74.197 79.688 74.473 79.412 74.681 79.044C74.897 78.676 75.005 78.228 75.005 77.7C75.005 77.172 74.901 76.724 74.693 76.356C74.485 75.988 74.213 75.716 73.877 75.54C73.541 75.356 73.177 75.264 72.785 75.264C72.385 75.264 72.017 75.356 71.681 75.54C71.353 75.716 71.089 75.988 70.889 76.356C70.689 76.724 70.589 77.172 70.589 77.7C70.589 78.236 70.685 78.688 70.877 79.056C71.077 79.424 71.341 79.7 71.669 79.884C71.997 80.06 72.357 80.148 72.749 80.148ZM80.7608 74.304C81.5608 74.304 82.2088 74.548 82.7048 75.036C83.2008 75.516 83.4488 76.212 83.4488 77.124V81H82.3688V77.28C82.3688 76.624 82.2048 76.124 81.8768 75.78C81.5488 75.428 81.1008 75.252 80.5328 75.252C79.9568 75.252 79.4968 75.432 79.1528 75.792C78.8168 76.152 78.6488 76.676 78.6488 77.364V81H77.5568V74.424H78.6488V75.36C78.8648 75.024 79.1568 74.764 79.5248 74.58C79.9008 74.396 80.3128 74.304 80.7608 74.304ZM94.0958 74.424L90.1358 84.096H89.0078L90.3038 80.928L87.6518 74.424H88.8638L90.9278 79.752L92.9678 74.424H94.0958ZM98.0615 81.108C97.4455 81.108 96.8855 80.968 96.3815 80.688C95.8855 80.408 95.4935 80.012 95.2055 79.5C94.9255 78.98 94.7855 78.38 94.7855 77.7C94.7855 77.028 94.9295 76.436 95.2175 75.924C95.5135 75.404 95.9135 75.008 96.4175 74.736C96.9215 74.456 97.4855 74.316 98.1095 74.316C98.7335 74.316 99.2975 74.456 99.8015 74.736C100.306 75.008 100.702 75.4 100.99 75.912C101.286 76.424 101.434 77.02 101.434 77.7C101.434 78.38 101.282 78.98 100.978 79.5C100.682 80.012 100.278 80.408 99.7655 80.688C99.2535 80.968 98.6855 81.108 98.0615 81.108ZM98.0615 80.148C98.4535 80.148 98.8215 80.056 99.1655 79.872C99.5095 79.688 99.7855 79.412 99.9935 79.044C100.21 78.676 100.318 78.228 100.318 77.7C100.318 77.172 100.214 76.724 100.006 76.356C99.7975 75.988 99.5255 75.716 99.1895 75.54C98.8535 75.356 98.4895 75.264 98.0975 75.264C97.6975 75.264 97.3295 75.356 96.9935 75.54C96.6655 75.716 96.4015 75.988 96.2015 76.356C96.0015 76.724 95.9015 77.172 95.9015 77.7C95.9015 78.236 95.9975 78.688 96.1895 79.056C96.3895 79.424 96.6535 79.7 96.9815 79.884C97.3095 80.06 97.6695 80.148 98.0615 80.148ZM108.701 74.424V81H107.609V80.028C107.401 80.364 107.109 80.628 106.733 80.82C106.365 81.004 105.957 81.096 105.509 81.096C104.997 81.096 104.537 80.992 104.129 80.784C103.721 80.568 103.397 80.248 103.157 79.824C102.925 79.4 102.809 78.884 102.809 78.276V74.424H103.889V78.132C103.889 78.78 104.053 79.28 104.381 79.632C104.709 79.976 105.157 80.148 105.725 80.148C106.309 80.148 106.769 79.968 107.105 79.608C107.441 79.248 107.609 78.724 107.609 78.036V74.424H108.701ZM111.637 75.492C111.829 75.116 112.101 74.824 112.453 74.616C112.813 74.408 113.249 74.304 113.761 74.304V75.432H113.473C112.249 75.432 111.637 76.096 111.637 77.424V81H110.545V74.424H111.637V75.492ZM126.129 74.304C126.641 74.304 127.097 74.412 127.497 74.628C127.897 74.836 128.213 75.152 128.445 75.576C128.677 76 128.793 76.516 128.793 77.124V81H127.713V77.28C127.713 76.624 127.549 76.124 127.221 75.78C126.901 75.428 126.465 75.252 125.913 75.252C125.345 75.252 124.893 75.436 124.557 75.804C124.221 76.164 124.053 76.688 124.053 77.376V81H122.973V77.28C122.973 76.624 122.809 76.124 122.481 75.78C122.161 75.428 121.725 75.252 121.173 75.252C120.605 75.252 120.153 75.436 119.817 75.804C119.481 76.164 119.313 76.688 119.313 77.376V81H118.221V74.424H119.313V75.372C119.529 75.028 119.817 74.764 120.177 74.58C120.545 74.396 120.949 74.304 121.389 74.304C121.941 74.304 122.429 74.428 122.853 74.676C123.277 74.924 123.593 75.288 123.801 75.768C123.985 75.304 124.289 74.944 124.713 74.688C125.137 74.432 125.609 74.304 126.129 74.304ZM131.148 73.356C130.94 73.356 130.764 73.284 130.62 73.14C130.476 72.996 130.404 72.82 130.404 72.612C130.404 72.404 130.476 72.228 130.62 72.084C130.764 71.94 130.94 71.868 131.148 71.868C131.348 71.868 131.516 71.94 131.652 72.084C131.796 72.228 131.868 72.404 131.868 72.612C131.868 72.82 131.796 72.996 131.652 73.14C131.516 73.284 131.348 73.356 131.148 73.356ZM131.676 74.424V81H130.584V74.424H131.676ZM136.741 74.304C137.541 74.304 138.189 74.548 138.685 75.036C139.181 75.516 139.429 76.212 139.429 77.124V81H138.349V77.28C138.349 76.624 138.185 76.124 137.857 75.78C137.529 75.428 137.081 75.252 136.513 75.252C135.937 75.252 135.477 75.432 135.133 75.792C134.797 76.152 134.629 76.676 134.629 77.364V81H133.537V74.424H134.629V75.36C134.845 75.024 135.137 74.764 135.505 74.58C135.881 74.396 136.293 74.304 136.741 74.304ZM140.805 77.688C140.805 77.016 140.941 76.428 141.213 75.924C141.485 75.412 141.857 75.016 142.329 74.736C142.809 74.456 143.345 74.316 143.937 74.316C144.449 74.316 144.925 74.436 145.365 74.676C145.805 74.908 146.141 75.216 146.373 75.6V72.12H147.477V81H146.373V79.764C146.157 80.156 145.837 80.48 145.413 80.736C144.989 80.984 144.493 81.108 143.925 81.108C143.341 81.108 142.809 80.964 142.329 80.676C141.857 80.388 141.485 79.984 141.213 79.464C140.941 78.944 140.805 78.352 140.805 77.688ZM146.373 77.7C146.373 77.204 146.273 76.772 146.073 76.404C145.873 76.036 145.601 75.756 145.257 75.564C144.921 75.364 144.549 75.264 144.141 75.264C143.733 75.264 143.361 75.36 143.025 75.552C142.689 75.744 142.421 76.024 142.221 76.392C142.021 76.76 141.921 77.192 141.921 77.688C141.921 78.192 142.021 78.632 142.221 79.008C142.421 79.376 142.689 79.66 143.025 79.86C143.361 80.052 143.733 80.148 144.141 80.148C144.549 80.148 144.921 80.052 145.257 79.86C145.601 79.66 145.873 79.376 146.073 79.008C146.273 78.632 146.373 78.196 146.373 77.7ZM151.458 72.528C152.25 72.528 152.89 72.752 153.378 73.2C153.866 73.648 154.11 74.248 154.11 75C154.11 75.84 153.85 76.464 153.33 76.872C152.81 77.272 152.106 77.472 151.218 77.472L151.182 78.612H150.234L150.186 76.716H150.534C151.326 76.716 151.946 76.596 152.394 76.356C152.842 76.116 153.066 75.664 153.066 75C153.066 74.52 152.922 74.14 152.634 73.86C152.346 73.58 151.958 73.44 151.47 73.44C150.974 73.44 150.582 73.576 150.294 73.848C150.014 74.112 149.874 74.476 149.874 74.94H148.842C148.842 74.46 148.95 74.04 149.166 73.68C149.382 73.312 149.686 73.028 150.078 72.828C150.478 72.628 150.938 72.528 151.458 72.528ZM150.702 81.072C150.494 81.072 150.318 81 150.174 80.856C150.03 80.712 149.958 80.536 149.958 80.328C149.958 80.12 150.03 79.944 150.174 79.8C150.318 79.656 150.494 79.584 150.702 79.584C150.902 79.584 151.07 79.656 151.206 79.8C151.35 79.944 151.422 80.12 151.422 80.328C151.422 80.536 151.35 80.712 151.206 80.856C151.07 81 150.902 81.072 150.702 81.072Z" fill="#7D7D7D"/>
<rect x="191" y="60" width="44" height="34" rx="17" fill="#10182F"/>
<path fill-rule="evenodd" clip-rule="evenodd" d="M213 67.1094C211.218 67.1094 209.769 68.8511 209.769 70.9922V76.539C209.769 78.6801 211.218 80.4218 213 80.4218C214.782 80.4218 216.231 78.6801 216.231 76.539V70.9922C216.231 68.8511 214.782 67.1094 213 67.1094ZM207.923 74.1352V76.8099C207.923 80.1735 210.201 82.9114 213 82.9114C215.799 82.9114 218.077 80.1735 218.077 76.8099V74.1352H219V76.8099C219 80.5993 216.555 83.7155 213.462 83.9997L213.462 86.8906H215.769V88H210.231V86.8906H212.538L212.538 83.9997C209.445 83.7155 207 80.5992 207 76.8099V74.1352H207.923ZM213 66C215.29 66 217.154 68.2398 217.154 70.9922V76.539C217.154 79.2913 215.29 81.5312 213 81.5312C210.71 81.5312 208.846 79.2913 208.846 76.539V70.9922C208.846 68.2398 210.71 66 213 66Z" fill="white" stroke="white" stroke-width="0.0333333"/>
</svg>
