<svg width="50" height="38" viewBox="0 0 50 38" fill="none" xmlns="http://www.w3.org/2000/svg">
<rect width="50" height="38" rx="10" fill="#10182F"/>
<path d="M14.75 27.9999V11.9999C14.75 10.5998 14.75 9.89974 15.0225 9.36496C15.2622 8.89455 15.6446 8.5121 16.115 8.27243C16.6498 7.99994 17.3499 7.99994 18.75 7.99994H30.75C32.1501 7.99994 32.8503 7.99994 33.385 8.27243C33.8554 8.5121 34.2379 8.89455 34.4775 9.36496C34.75 9.89974 34.75 10.5998 34.75 11.9999V25.4999H17.25C15.8693 25.4999 14.75 26.6192 14.75 27.9999ZM14.75 27.9999C14.75 29.3807 15.8693 30.4999 17.25 30.4999H34.75M21 12.9999H28.5M21 17.9999H28.5M33.5 25.4999V30.4999" stroke="white" stroke-width="2" stroke-linecap="round" stroke-linejoin="round"/>
</svg>
