<svg width="50" height="38" viewBox="0 0 50 38" fill="none" xmlns="http://www.w3.org/2000/svg">
<rect width="50" height="38" rx="10" fill="white"/>
<path d="M23.8594 11.875V22.1875C23.8575 23.6788 23.205 25.1086 22.045 26.1631C20.8851 27.2176 19.3123 27.8108 17.6719 27.8125C17.3984 27.8125 17.1361 27.7137 16.9427 27.5379C16.7493 27.3621 16.6406 27.1236 16.6406 26.875C16.6406 26.6264 16.7493 26.3879 16.9427 26.2121C17.1361 26.0363 17.3984 25.9375 17.6719 25.9375C18.7655 25.9364 19.814 25.5409 20.5873 24.8379C21.3607 24.1349 21.7956 23.1817 21.7969 22.1875V21.25H14.0625C13.5157 21.2494 12.9914 21.0517 12.6048 20.7002C12.2181 20.3487 12.0006 19.8721 12 19.375V11.875C12.0006 11.3779 12.2181 10.9013 12.6048 10.5498C12.9914 10.1983 13.5157 10.0006 14.0625 10H21.7969C22.3437 10.0006 22.8679 10.1983 23.2546 10.5498C23.6413 10.9013 23.8587 11.3779 23.8594 11.875ZM36.75 10H29.0156C28.4688 10.0006 27.9446 10.1983 27.5579 10.5498C27.1712 10.9013 26.9538 11.3779 26.9531 11.875V19.375C26.9538 19.8721 27.1712 20.3487 27.5579 20.7002C27.9446 21.0517 28.4688 21.2494 29.0156 21.25H36.75V22.1875C36.7488 23.1817 36.3138 24.1349 35.5405 24.8379C34.7671 25.5409 33.7186 25.9364 32.625 25.9375C32.3515 25.9375 32.0892 26.0363 31.8958 26.2121C31.7024 26.3879 31.5938 26.6264 31.5938 26.875C31.5938 27.1236 31.7024 27.3621 31.8958 27.5379C32.0892 27.7137 32.3515 27.8125 32.625 27.8125C34.2655 27.8108 35.8382 27.2176 36.9982 26.1631C38.1582 25.1086 38.8106 23.6788 38.8125 22.1875V11.875C38.8119 11.3779 38.5944 10.9013 38.2077 10.5498C37.8211 10.1983 37.2968 10.0006 36.75 10Z" fill="#10182F"/>
<path d="M23.8594 11.875V22.1875C23.8575 23.6788 23.205 25.1086 22.045 26.1631C20.8851 27.2176 19.3123 27.8108 17.6719 27.8125C17.3984 27.8125 17.1361 27.7137 16.9427 27.5379C16.7493 27.3621 16.6406 27.1236 16.6406 26.875C16.6406 26.6264 16.7493 26.3879 16.9427 26.2121C17.1361 26.0363 17.3984 25.9375 17.6719 25.9375C18.7655 25.9364 19.814 25.5409 20.5873 24.8379C21.3607 24.1349 21.7956 23.1817 21.7969 22.1875V21.25H14.0625C13.5157 21.2494 12.9914 21.0517 12.6048 20.7002C12.2181 20.3487 12.0006 19.8721 12 19.375V11.875C12.0006 11.3779 12.2181 10.9013 12.6048 10.5498C12.9914 10.1983 13.5157 10.0006 14.0625 10H21.7969C22.3437 10.0006 22.8679 10.1983 23.2546 10.5498C23.6413 10.9013 23.8587 11.3779 23.8594 11.875ZM36.75 10H29.0156C28.4688 10.0006 27.9446 10.1983 27.5579 10.5498C27.1712 10.9013 26.9538 11.3779 26.9531 11.875V19.375C26.9538 19.8721 27.1712 20.3487 27.5579 20.7002C27.9446 21.0517 28.4688 21.2494 29.0156 21.25H36.75V22.1875C36.7488 23.1817 36.3138 24.1349 35.5405 24.8379C34.7671 25.5409 33.7186 25.9364 32.625 25.9375C32.3515 25.9375 32.0892 26.0363 31.8958 26.2121C31.7024 26.3879 31.5938 26.6264 31.5938 26.875C31.5938 27.1236 31.7024 27.3621 31.8958 27.5379C32.0892 27.7137 32.3515 27.8125 32.625 27.8125C34.2655 27.8108 35.8382 27.2176 36.9982 26.1631C38.1582 25.1086 38.8106 23.6788 38.8125 22.1875V11.875C38.8119 11.3779 38.5944 10.9013 38.2077 10.5498C37.8211 10.1983 37.2968 10.0006 36.75 10Z" fill="#10182F"/>
<path d="M23.8594 11.875V22.1875C23.8575 23.6788 23.205 25.1086 22.045 26.1631C20.8851 27.2176 19.3123 27.8108 17.6719 27.8125C17.3984 27.8125 17.1361 27.7137 16.9427 27.5379C16.7493 27.3621 16.6406 27.1236 16.6406 26.875C16.6406 26.6264 16.7493 26.3879 16.9427 26.2121C17.1361 26.0363 17.3984 25.9375 17.6719 25.9375C18.7655 25.9364 19.814 25.5409 20.5873 24.8379C21.3607 24.1349 21.7956 23.1817 21.7969 22.1875V21.25H14.0625C13.5157 21.2494 12.9914 21.0517 12.6048 20.7002C12.2181 20.3487 12.0006 19.8721 12 19.375V11.875C12.0006 11.3779 12.2181 10.9013 12.6048 10.5498C12.9914 10.1983 13.5157 10.0006 14.0625 10H21.7969C22.3437 10.0006 22.8679 10.1983 23.2546 10.5498C23.6413 10.9013 23.8587 11.3779 23.8594 11.875ZM36.75 10H29.0156C28.4688 10.0006 27.9446 10.1983 27.5579 10.5498C27.1712 10.9013 26.9538 11.3779 26.9531 11.875V19.375C26.9538 19.8721 27.1712 20.3487 27.5579 20.7002C27.9446 21.0517 28.4688 21.2494 29.0156 21.25H36.75V22.1875C36.7488 23.1817 36.3138 24.1349 35.5405 24.8379C34.7671 25.5409 33.7186 25.9364 32.625 25.9375C32.3515 25.9375 32.0892 26.0363 31.8958 26.2121C31.7024 26.3879 31.5938 26.6264 31.5938 26.875C31.5938 27.1236 31.7024 27.3621 31.8958 27.5379C32.0892 27.7137 32.3515 27.8125 32.625 27.8125C34.2655 27.8108 35.8382 27.2176 36.9982 26.1631C38.1582 25.1086 38.8106 23.6788 38.8125 22.1875V11.875C38.8119 11.3779 38.5944 10.9013 38.2077 10.5498C37.8211 10.1983 37.2968 10.0006 36.75 10Z" fill="#10182F"/>
</svg>
