<svg width="207" height="37" viewBox="0 0 207 37" fill="none" xmlns="http://www.w3.org/2000/svg">
<path d="M39.136 2.304V36H30.928V15.792L23.392 36H16.768L9.184 15.744V36H0.976V2.304H10.672L20.128 25.632L29.488 2.304H39.136ZM70.2865 22.176C70.2865 22.944 70.2385 23.744 70.1425 24.576H51.5665C51.6945 26.24 52.2225 27.52 53.1505 28.416C54.1105 29.28 55.2785 29.712 56.6545 29.712C58.7025 29.712 60.1265 28.848 60.9265 27.12H69.6625C69.2145 28.88 68.3985 30.464 67.2145 31.872C66.0625 33.28 64.6065 34.384 62.8465 35.184C61.0865 35.984 59.1185 36.384 56.9425 36.384C54.3185 36.384 51.9825 35.824 49.9345 34.704C47.8865 33.584 46.2865 31.984 45.1345 29.904C43.9825 27.824 43.4065 25.392 43.4065 22.608C43.4065 19.824 43.9665 17.392 45.0865 15.312C46.2385 13.232 47.8385 11.632 49.8865 10.512C51.9345 9.392 54.2865 8.832 56.9425 8.832C59.5345 8.832 61.8385 9.376 63.8545 10.464C65.8705 11.552 67.4385 13.104 68.5585 15.12C69.7105 17.136 70.2865 19.488 70.2865 22.176ZM61.8865 20.016C61.8865 18.608 61.4065 17.488 60.4465 16.656C59.4865 15.824 58.2865 15.408 56.8465 15.408C55.4705 15.408 54.3025 15.808 53.3425 16.608C52.4145 17.408 51.8385 18.544 51.6145 20.016H61.8865Z" fill="#306BF3"/>
<path d="M112.777 2.304V36H104.569V15.792L97.0326 36H90.4086L82.8246 15.744V36H74.6166V2.304H84.3126L93.7686 25.632L103.129 2.304H112.777ZM130.871 36.384C128.247 36.384 125.879 35.824 123.767 34.704C121.687 33.584 120.039 31.984 118.823 29.904C117.639 27.824 117.047 25.392 117.047 22.608C117.047 19.856 117.655 17.44 118.871 15.36C120.087 13.248 121.751 11.632 123.863 10.512C125.975 9.392 128.343 8.832 130.967 8.832C133.591 8.832 135.959 9.392 138.071 10.512C140.183 11.632 141.847 13.248 143.063 15.36C144.279 17.44 144.887 19.856 144.887 22.608C144.887 25.36 144.263 27.792 143.015 29.904C141.799 31.984 140.119 33.584 137.975 34.704C135.863 35.824 133.495 36.384 130.871 36.384ZM130.871 29.28C132.439 29.28 133.767 28.704 134.855 27.552C135.975 26.4 136.535 24.752 136.535 22.608C136.535 20.464 135.991 18.816 134.903 17.664C133.847 16.512 132.535 15.936 130.967 15.936C129.367 15.936 128.039 16.512 126.983 17.664C125.927 18.784 125.399 20.432 125.399 22.608C125.399 24.752 125.911 26.4 126.935 27.552C127.991 28.704 129.303 29.28 130.871 29.28ZM161.434 36.384C158.81 36.384 156.442 35.824 154.33 34.704C152.25 33.584 150.602 31.984 149.386 29.904C148.202 27.824 147.61 25.392 147.61 22.608C147.61 19.856 148.218 17.44 149.434 15.36C150.65 13.248 152.314 11.632 154.426 10.512C156.538 9.392 158.906 8.832 161.53 8.832C164.154 8.832 166.522 9.392 168.634 10.512C170.746 11.632 172.41 13.248 173.626 15.36C174.842 17.44 175.45 19.856 175.45 22.608C175.45 25.36 174.826 27.792 173.578 29.904C172.362 31.984 170.682 33.584 168.538 34.704C166.426 35.824 164.058 36.384 161.434 36.384ZM161.434 29.28C163.002 29.28 164.33 28.704 165.418 27.552C166.538 26.4 167.098 24.752 167.098 22.608C167.098 20.464 166.554 18.816 165.466 17.664C164.41 16.512 163.098 15.936 161.53 15.936C159.93 15.936 158.602 16.512 157.546 17.664C156.49 18.784 155.962 20.432 155.962 22.608C155.962 24.752 156.474 26.4 157.498 27.552C158.554 28.704 159.866 29.28 161.434 29.28ZM178.172 22.56C178.172 19.808 178.684 17.392 179.708 15.312C180.764 13.232 182.188 11.632 183.98 10.512C185.772 9.392 187.772 8.832 189.98 8.832C191.74 8.832 193.34 9.2 194.78 9.936C196.252 10.672 197.404 11.664 198.236 12.912V0.48H206.444V36H198.236V32.16C197.468 33.44 196.364 34.464 194.924 35.232C193.516 36 191.868 36.384 189.98 36.384C187.772 36.384 185.772 35.824 183.98 34.704C182.188 33.552 180.764 31.936 179.708 29.856C178.684 27.744 178.172 25.312 178.172 22.56ZM198.236 22.608C198.236 20.56 197.66 18.944 196.508 17.76C195.388 16.576 194.012 15.984 192.38 15.984C190.748 15.984 189.356 16.576 188.204 17.76C187.084 18.912 186.524 20.512 186.524 22.56C186.524 24.608 187.084 26.24 188.204 27.456C189.356 28.64 190.748 29.232 192.38 29.232C194.012 29.232 195.388 28.64 196.508 27.456C197.66 26.272 198.236 24.656 198.236 22.608Z" fill="white"/>
</svg>
