<svg width="53" height="27" viewBox="0 0 53 27" fill="none" xmlns="http://www.w3.org/2000/svg">
<path d="M28.852 0.727999V26H22.696V10.844L17.044 26H12.076L6.388 10.808V26H0.232V0.727999H7.504L14.596 18.224L21.616 0.727999H28.852ZM52.2149 15.632C52.2149 16.208 52.1789 16.808 52.1069 17.432H38.1749C38.2709 18.68 38.6669 19.64 39.3629 20.312C40.0829 20.96 40.9589 21.284 41.9909 21.284C43.5269 21.284 44.5949 20.636 45.1949 19.34H51.7469C51.4109 20.66 50.7989 21.848 49.9109 22.904C49.0469 23.96 47.9549 24.788 46.6349 25.388C45.3149 25.988 43.8389 26.288 42.2069 26.288C40.2389 26.288 38.4869 25.868 36.9509 25.028C35.4149 24.188 34.2149 22.988 33.3509 21.428C32.4869 19.868 32.0549 18.044 32.0549 15.956C32.0549 13.868 32.4749 12.044 33.3149 10.484C34.1789 8.924 35.3789 7.724 36.9149 6.884C38.4509 6.044 40.2149 5.624 42.2069 5.624C44.1509 5.624 45.8789 6.032 47.3909 6.848C48.9029 7.664 50.0789 8.828 50.9189 10.34C51.7829 11.852 52.2149 13.616 52.2149 15.632ZM45.9149 14.012C45.9149 12.956 45.5549 12.116 44.8349 11.492C44.1149 10.868 43.2149 10.556 42.1349 10.556C41.1029 10.556 40.2269 10.856 39.5069 11.456C38.8109 12.056 38.3789 12.908 38.2109 14.012H45.9149Z" fill="#306BF3"/>
</svg>
