<svg width="50" height="50" viewBox="0 0 50 50" fill="none" xmlns="http://www.w3.org/2000/svg">
<g clip-path="url(#clip0_97_344)">
<path d="M25 49.9999C38.807 49.9999 49.9999 38.807 49.9999 25C49.9999 11.1929 38.807 0 25 0C11.1929 0 0 11.1929 0 25C0 38.807 11.1929 49.9999 25 49.9999Z" fill="#F7B239"/>
<path d="M11.865 38.1341C2.87178 29.1407 2.1631 15.0005 9.73845 5.19556C8.89931 5.84379 8.0919 6.55247 7.32219 7.32218C-2.44073 17.0851 -2.44073 32.914 7.32219 42.6768C17.0851 52.4396 32.914 52.4397 42.6768 42.6768C43.4465 41.9072 44.1551 41.0997 44.8035 40.2606C34.9987 47.836 20.8584 47.1273 11.865 38.1341Z" fill="#E09B2D"/>
<path d="M29.2005 34.4296H20.5514C20.0395 34.4296 19.6248 34.0147 19.6248 33.5029C19.6248 32.9912 20.0395 32.5763 20.5514 32.5763H29.2006C29.7125 32.5763 30.1272 32.9911 30.1272 33.5029C30.1271 34.0147 29.7123 34.4296 29.2005 34.4296Z" fill="#E09B2D"/>
<path d="M36.6748 29.1172H13.077C12.5651 29.1172 12.1504 29.532 12.1504 30.0438C12.1504 30.5555 12.5651 30.9705 13.077 30.9705H36.6748C37.1867 30.9705 37.6014 30.5556 37.6014 30.0438C37.6013 29.532 37.1865 29.1172 36.6748 29.1172Z" fill="#4D4D4D"/>
<path d="M17.3611 22.0458C17.3611 20.1554 15.8231 18.6174 13.9328 18.6174C12.0424 18.6174 10.5044 20.1554 10.5044 22.0458C10.5044 23.9362 12.0424 25.4741 13.9328 25.4741C15.8231 25.4741 17.3611 23.9362 17.3611 22.0458Z" fill="#4D4D4D"/>
<path d="M36.0663 18.6174C34.1759 18.6174 32.6379 20.1554 32.6379 22.0458C32.6379 23.9362 34.1759 25.4741 36.0663 25.4741C37.9567 25.4741 39.4947 23.9362 39.4947 22.0458C39.4947 20.1554 37.9567 18.6174 36.0663 18.6174Z" fill="#4D4D4D"/>
</g>
<defs>
<clipPath id="clip0_97_344">
<rect width="50" height="50" fill="white"/>
</clipPath>
</defs>
</svg>
