<svg width="300" height="300" viewBox="0 0 300 300" fill="none" xmlns="http://www.w3.org/2000/svg">
<g clip-path="url(#clip0_28_552)">
<path d="M150 299.999C232.842 299.999 299.999 232.842 299.999 150C299.999 67.1572 232.842 0 150 0C67.1572 0 0 67.1572 0 150C0 232.842 67.1572 299.999 150 299.999Z" fill="#F7B239"/>
<path d="M71.1898 228.805C17.2306 174.845 12.9785 90.0033 58.4306 31.1738C53.3958 35.0632 48.5513 39.3153 43.9331 43.9336C-14.6444 102.511 -14.6444 197.485 43.9331 256.061C102.511 314.638 197.484 314.639 256.061 256.061C260.679 251.444 264.931 246.599 268.821 241.564C209.992 287.017 125.15 282.765 71.1898 228.805Z" fill="#E09B2D"/>
<path d="M175.203 206.578H123.308C120.237 206.578 117.749 204.089 117.749 201.018C117.749 197.948 120.237 195.458 123.308 195.458H175.203C178.275 195.458 180.763 197.947 180.763 201.018C180.763 204.089 178.274 206.578 175.203 206.578Z" fill="#E09B2D"/>
<path d="M220.049 174.703H78.4627C75.3912 174.703 72.9028 177.192 72.9028 180.263C72.9028 183.333 75.3912 185.823 78.4627 185.823H220.049C223.12 185.823 225.609 183.334 225.609 180.263C225.608 177.192 223.119 174.703 220.049 174.703Z" fill="#4D4D4D"/>
<path d="M104.167 132.275C104.167 120.933 94.939 111.705 83.5966 111.705C72.2542 111.705 63.0264 120.933 63.0264 132.275C63.0264 143.618 72.2542 152.845 83.5966 152.845C94.939 152.845 104.167 143.618 104.167 132.275Z" fill="#4D4D4D"/>
<path d="M216.398 111.705C205.056 111.705 195.828 120.933 195.828 132.275C195.828 143.618 205.056 152.845 216.398 152.845C227.741 152.845 236.968 143.618 236.968 132.275C236.968 120.933 227.741 111.705 216.398 111.705Z" fill="#4D4D4D"/>
</g>
<defs>
<clipPath id="clip0_28_552">
<rect width="300" height="300" fill="white"/>
</clipPath>
</defs>
</svg>
