<svg width="306" height="360" viewBox="0 0 306 360" fill="none" xmlns="http://www.w3.org/2000/svg">
<rect width="306" height="360" rx="15" fill="#ABC4FF" fill-opacity="0.3"/>
<g clip-path="url(#clip0_38_367)">
<path d="M160.077 265.234C156.627 265.815 154.103 268.245 154.44 270.659C154.777 273.074 157.847 274.559 161.298 273.977C162.679 273.765 163.995 273.193 165.134 272.307L179.724 269.64L178.75 263.297L164.193 265.563C162.865 265.093 161.453 264.98 160.077 265.234Z" fill="#FFB6B6"/>
<path d="M222.948 245.464L217.291 258.666L188.851 269.195L165.252 270.58L164.661 264.346L190.237 258.465L216.481 244.825L222.948 245.464Z" fill="#E6E6E6"/>
<path d="M158.423 217.844L157.647 217.863L159.13 291.958L159.906 291.939L158.423 217.844Z" fill="#3F3D56"/>
<path d="M158.44 250.651C158.369 250.388 156.762 244.139 160.243 237.997L160.902 238.448C157.609 244.256 159.168 250.35 159.184 250.411L158.44 250.651Z" fill="#3F3D56"/>
<path d="M160.515 238.471C160.515 238.471 159.457 230.515 169.208 228.331C171.239 227.876 173.149 227.566 174.899 227.358C176.966 227.114 177.772 230.225 175.905 231.23C173.202 232.685 170.659 234.518 169.333 236.689C165.677 242.677 160.515 238.471 160.515 238.471Z" fill="#306BF3"/>
<path d="M159.443 273.659L158.698 273.419C158.714 273.358 160.273 267.264 156.981 261.456L157.639 261.004C161.121 267.147 159.513 273.396 159.443 273.659Z" fill="#3F3D56"/>
<path d="M157.367 261.479C157.367 261.479 158.425 253.522 148.675 251.339C146.644 250.884 144.734 250.573 142.983 250.366C140.917 250.121 140.111 253.232 141.978 254.237C144.681 255.692 147.224 257.526 148.549 259.697C152.205 265.685 157.367 261.479 157.367 261.479Z" fill="#306BF3"/>
<path d="M170.938 207.556C172.901 206.987 174.736 205.995 174.675 205.014C174.603 203.849 171.878 203.068 169.527 202.949C171.3 201.424 172.93 199.315 172.431 198.361C171.973 197.484 169.843 197.824 167.877 198.596C169.04 196.767 169.858 194.706 169.235 194.001C168.459 193.122 165.705 194.638 163.826 196.315C164.192 193.703 164.007 190.407 162.942 190.108C162.051 189.859 160.788 191.776 159.922 193.865C159.539 191.673 158.765 189.592 157.871 189.592C156.597 189.592 155.564 193.815 155.564 196.567C155.564 196.722 155.568 196.869 155.575 197.009C155.447 196.846 155.3 196.675 155.133 196.497C153.338 194.58 149.864 192.452 148.977 193.457C148.354 194.162 149.172 196.224 150.335 198.053C148.369 197.281 146.239 196.941 145.781 197.818C145.165 198.996 147.796 201.937 149.934 203.363C149.806 203.346 149.671 203.332 149.527 203.321C147.031 203.134 143.129 203.979 143.043 205.377C142.982 206.358 144.817 207.349 146.78 207.918C144.826 208.726 143 209.981 143.166 210.976C143.367 212.183 146.434 212.606 148.846 212.359C147.044 214.26 145.091 217.666 145.906 218.664C146.503 219.395 148.429 218.638 150.168 217.486C149.333 219.591 148.88 221.905 149.644 222.468C150.654 223.211 153.424 220.625 154.885 218.399C154.736 221.122 155.328 224.862 156.503 225.009C157.392 225.121 158.376 223.15 158.982 221.019C159.627 223.203 160.684 225.266 161.595 225.129C162.78 224.951 163.296 221.118 163.075 218.393C164.582 220.527 167.117 222.809 168.074 222.105C168.838 221.543 168.385 219.228 167.55 217.124C169.289 218.276 171.214 219.033 171.812 218.301C172.627 217.303 170.673 213.897 168.872 211.996C171.283 212.244 174.351 211.821 174.552 210.614C174.718 209.619 172.892 208.364 170.938 207.556ZM160.37 215.256C159.866 215.332 159.404 215.44 159.054 215.716C158.681 215.31 158.137 215.186 157.531 215.11C156.854 215.024 156.238 215.016 155.768 215.446C155.596 214.921 155.174 214.548 154.682 214.186C154.258 213.874 153.848 213.619 153.419 213.57C153.385 212.993 153.053 212.503 152.646 212.005C152.386 211.687 152.126 211.403 151.838 211.213C152.254 210.656 152.206 209.953 152.077 209.181C151.986 208.63 151.866 208.128 151.6 207.755C151.952 207.327 152.04 206.723 152.082 206.055C152.127 205.325 152.108 204.663 151.725 204.171C152.715 204.309 153.193 203.631 153.637 202.781C153.89 202.296 154.094 201.828 154.11 201.354C154.63 201.278 155.052 200.879 155.476 200.399C155.839 199.988 156.147 199.582 156.263 199.114C156.678 199.498 157.245 199.556 157.871 199.556C158.48 199.556 159.033 199.501 159.446 199.143C159.766 199.461 160.213 199.626 160.706 199.764C161.177 199.896 161.622 199.984 162.026 199.895C162.174 200.266 162.436 200.603 162.736 200.942C163.16 201.423 163.582 201.821 164.102 201.897C164.118 202.371 164.322 202.839 164.575 203.325C164.874 203.896 165.188 204.39 165.662 204.611C165.606 204.943 165.612 205.308 165.636 205.693C165.678 206.361 165.765 206.965 166.118 207.393C165.851 207.766 165.732 208.267 165.64 208.818C165.512 209.59 165.464 210.294 165.879 210.851C165.591 211.041 165.332 211.325 165.072 211.643C164.665 212.141 164.332 212.631 164.299 213.207C163.87 213.257 163.459 213.512 163.036 213.823C162.458 214.249 161.977 214.69 161.884 215.374C161.45 215.142 160.931 215.172 160.37 215.256Z" fill="#306BF3"/>
<path d="M159.024 216.585C163.572 216.585 167.26 212.53 167.26 207.527C167.26 202.524 163.572 198.469 159.024 198.469C154.475 198.469 150.787 202.524 150.787 207.527C150.787 212.53 154.475 216.585 159.024 216.585Z" fill="#3F3D56"/>
<path d="M59.6896 317.366C59.6896 317.647 59.8952 317.873 60.1511 317.873H262.693C262.949 317.873 263.154 317.647 263.154 317.366C263.154 317.084 262.949 316.858 262.693 316.858H60.1511C59.8952 316.858 59.6896 317.084 59.6896 317.366Z" fill="#3F3D56"/>
<path d="M170.494 295.593L165.415 309.722L158.842 304.793L162.726 290.007L170.494 295.593Z" fill="#FFB6B6"/>
<path d="M149.282 290.336L135.837 304.465L141.215 310.708L154.958 298.879L149.282 290.336Z" fill="#FFB6B6"/>
<path d="M225.468 244.335L225.319 243.185L221.883 235.792L210.53 239.078L212.621 249.264L225.468 244.335Z" fill="#FFB6B6"/>
<path d="M220.688 293.622L221.037 298.557C221.037 298.557 222.48 319.251 210.828 320.893C199.176 322.536 194.097 324.179 187.225 311.365L176.47 290.336L170.187 298.557L161.83 291.322C161.83 291.322 167.805 265.693 172.586 264.707C173.183 264.584 173.781 264.522 174.369 264.509C178.327 264.418 182.057 266.547 184.425 270.035L197.981 290.007L202.911 287.543L220.688 293.622Z" fill="#2F2E41"/>
<path d="M156.153 309.065L158.842 303.479L166.61 309.393C166.61 309.393 168.403 316.622 165.714 317.608C163.025 318.593 155.556 317.279 155.556 317.279C155.556 317.279 141.813 320.565 141.514 317.608C141.215 314.651 147.788 313.993 147.788 313.993L156.153 309.065Z" fill="#2F2E41"/>
<path d="M185.433 305.122L164.668 290.733L154.062 301.179L146.892 291.979C146.892 291.979 160.037 270.621 163.921 269.635C167.805 268.65 174.08 267.993 174.08 267.993L193.201 287.379L185.433 305.122Z" fill="#2F2E41"/>
<path d="M135.538 303.15L142.41 311.365L141.504 312.217C141.504 312.217 139.721 320.756 135.538 317.868C131.356 314.979 131.057 314.322 131.057 314.322C131.057 314.322 119.106 317.279 117.911 312.022C116.716 306.765 120.002 307.75 120.002 307.75L122.986 309.722L135.538 303.15Z" fill="#2F2E41"/>
<path d="M214.115 242.692C219.395 242.692 223.675 237.985 223.675 232.178C223.675 226.371 219.395 221.663 214.115 221.663C208.835 221.663 204.554 226.371 204.554 232.178C204.554 237.985 208.835 242.692 214.115 242.692Z" fill="#FFB6B6"/>
<path d="M211.874 247.128L225.617 242.528C225.617 242.528 230.995 256.328 230.099 262.571C229.203 268.814 221.037 298.557 221.037 298.557L202.911 287.543C202.911 287.543 202.612 280.971 201.716 278.014C200.82 275.057 197.981 266.021 204.255 258.464C210.53 250.907 211.874 247.128 211.874 247.128Z" fill="#E6E6E6"/>
<path d="M77.658 143.522L76.8828 143.541L80.3729 317.973L81.1481 317.954L77.658 143.522Z" fill="#3F3D56"/>
<path d="M78.7263 220.58C78.6866 220.431 74.8415 205.501 82.9143 191.259L83.5724 191.71C75.6815 205.631 79.4317 220.195 79.4705 220.341L78.7263 220.58Z" fill="#3F3D56"/>
<path d="M83.1092 192.069C83.1092 192.069 80.6175 173.339 103.572 168.199C108.354 167.128 112.85 166.396 116.971 165.909C121.836 165.333 123.733 172.656 119.339 175.022C112.974 178.448 106.988 182.764 103.867 187.875C95.2611 201.971 83.1092 192.069 83.1092 192.069Z" fill="#306BF3"/>
<path d="M80.0802 274.744L79.336 274.504C79.3747 274.359 83.1176 259.782 75.2341 245.874L75.8923 245.422C83.965 259.664 80.12 274.595 80.0802 274.744Z" fill="#3F3D56"/>
<path d="M75.6973 246.233C75.6973 246.233 78.189 227.503 55.2345 222.363C50.4523 221.292 45.9565 220.56 41.8354 220.072C36.9708 219.497 35.0732 226.82 39.4678 229.185C45.8321 232.611 51.8188 236.927 54.9392 242.038C63.5453 256.135 75.6973 246.233 75.6973 246.233Z" fill="#306BF3"/>
<path d="M107.646 119.291C112.266 117.951 116.587 115.616 116.444 113.307C116.273 110.563 109.859 108.725 104.325 108.445C108.499 104.854 112.334 99.8895 111.161 97.6442C110.083 95.58 105.067 96.3796 100.439 98.1977C103.178 93.8914 105.103 89.0391 103.637 87.3785C101.81 85.3099 95.327 88.8803 90.9026 92.8268C91.7639 86.6785 91.3285 78.9178 88.8211 78.2156C86.7234 77.6282 83.7503 82.1427 81.712 87.0605C80.8111 81.8997 78.9874 77 76.8825 77C73.8841 77 71.4534 86.9423 71.4534 93.4197C71.4534 93.7858 71.4622 94.1305 71.4774 94.4598C71.1765 94.0761 70.8316 93.6752 70.4382 93.2551C66.213 88.7424 58.0343 83.7335 55.9453 86.099C54.4789 87.7596 56.4044 92.612 59.1431 96.9182C54.5152 95.1002 49.4991 94.3006 48.4208 96.3648C46.972 99.1384 53.165 106.062 58.199 109.42C57.8964 109.38 57.5785 109.346 57.2401 109.321C51.364 108.88 42.1791 110.87 41.975 114.16C41.8317 116.469 46.1524 118.804 50.7729 120.144C46.1728 122.045 41.875 125 42.2651 127.342C42.7385 130.184 49.9598 131.179 55.6377 130.596C51.3959 135.072 46.7964 143.09 48.7159 145.44C50.1225 147.162 54.6555 145.38 58.7484 142.668C56.7841 147.622 55.7173 153.071 57.5165 154.395C59.8942 156.144 66.4153 150.056 69.8534 144.817C69.5031 151.226 70.8975 160.03 73.6641 160.378C75.7553 160.641 78.0728 156 79.5003 150.985C81.0181 156.125 83.5062 160.982 85.6509 160.66C88.4398 160.241 89.6557 151.217 89.1355 144.803C92.6819 149.826 98.6505 155.198 100.902 153.542C102.701 152.218 101.635 146.769 99.6702 141.815C103.763 144.527 108.296 146.309 109.703 144.587C111.622 142.237 107.023 134.219 102.781 129.743C108.459 130.326 115.68 129.331 116.154 126.489C116.544 124.147 112.246 121.192 107.646 119.291ZM82.7672 137.419C81.5795 137.597 80.4935 137.851 79.6677 138.501C78.7903 137.543 77.5088 137.252 76.084 137.073C74.4887 136.872 73.0389 136.853 71.9334 137.866C71.5288 136.629 70.5341 135.75 69.3754 134.898C68.3791 134.165 67.4128 133.563 66.4028 133.447C66.3239 132.091 65.5408 130.937 64.5824 129.764C63.9714 129.016 63.36 128.347 62.6816 127.9C63.6604 126.589 63.5475 124.933 63.2447 123.115C63.0287 121.818 62.748 120.637 62.12 119.759C62.9501 118.751 63.1567 117.33 63.2543 115.757C63.3609 114.039 63.3166 112.481 62.4149 111.321C64.7452 111.647 65.8698 110.05 66.915 108.049C67.5121 106.906 67.9922 105.805 68.0287 104.689C69.2542 104.51 70.247 103.572 71.246 102.441C72.0995 101.474 72.8255 100.518 73.0982 99.416C74.0761 100.32 75.4105 100.457 76.8825 100.457C78.3166 100.457 79.6199 100.327 80.5904 99.4845C81.3439 100.233 82.3966 100.622 83.5582 100.947C84.6671 101.258 85.7138 101.465 86.6655 101.256C87.0129 102.129 87.6305 102.922 88.336 103.72C89.3351 104.852 90.3278 105.79 91.5533 105.968C91.5898 107.085 92.0699 108.186 92.667 109.329C93.3699 110.674 94.108 111.838 95.2246 112.357C95.0942 113.138 95.1082 113.999 95.1643 114.904C95.2619 116.477 95.4685 117.898 96.2986 118.906C95.6706 119.784 95.3899 120.965 95.1739 122.262C94.8711 124.08 94.7582 125.736 95.737 127.047C95.0586 127.494 94.4472 128.163 93.8362 128.911C92.8778 130.084 92.0948 131.238 92.0159 132.594C91.0058 132.71 90.0396 133.312 89.0432 134.045C87.6824 135.046 86.5489 136.084 86.3312 137.695C85.3101 137.15 84.0877 137.22 82.7672 137.419Z" fill="#306BF3"/>
<path d="M79.5971 140.546C90.3058 140.546 98.9869 130.999 98.9869 119.222C98.9869 107.445 90.3058 97.8978 79.5971 97.8978C68.8884 97.8978 60.2073 107.445 60.2073 119.222C60.2073 130.999 68.8884 140.546 79.5971 140.546Z" fill="#3F3D56"/>
<path d="M258.746 275.85L257.971 275.868L258.805 317.547L259.58 317.528L258.746 275.85Z" fill="#3F3D56"/>
<path d="M258.423 294.36C258.383 294.209 257.459 290.616 259.457 287.091L260.115 287.542C258.306 290.733 259.159 294.087 259.168 294.121L258.423 294.36Z" fill="#3F3D56"/>
<path d="M259.754 287.456C259.754 287.456 259.158 282.981 264.643 281.753C265.786 281.497 266.86 281.322 267.845 281.206C269.007 281.068 269.46 282.818 268.41 283.383C266.89 284.202 265.459 285.233 264.714 286.454C262.657 289.822 259.754 287.456 259.754 287.456Z" fill="#306BF3"/>
<path d="M259.313 307.302L258.569 307.062C258.578 307.029 259.431 303.675 257.622 300.484L258.28 300.033C260.278 303.558 259.354 307.151 259.313 307.302Z" fill="#3F3D56"/>
<path d="M257.983 300.398C257.983 300.398 258.578 295.923 253.093 294.695C251.951 294.439 250.877 294.264 249.892 294.147C248.73 294.01 248.276 295.76 249.326 296.325C250.847 297.143 252.277 298.175 253.023 299.396C255.079 302.764 257.983 300.398 257.983 300.398Z" fill="#306BF3"/>
<path d="M265.616 270.067C266.72 269.747 267.753 269.189 267.719 268.637C267.678 267.982 266.145 267.542 264.823 267.475C265.82 266.617 266.737 265.431 266.456 264.895C266.199 264.401 265 264.593 263.895 265.027C264.549 263.998 265.009 262.839 264.659 262.442C264.222 261.948 262.673 262.801 261.616 263.744C261.822 262.275 261.718 260.42 261.119 260.252C260.617 260.112 259.907 261.191 259.42 262.366C259.205 261.133 258.769 259.962 258.266 259.962C257.55 259.962 256.969 262.338 256.969 263.885C256.969 263.973 256.971 264.055 256.974 264.134C256.903 264.042 256.82 263.946 256.726 263.846C255.717 262.768 253.762 261.571 253.263 262.136C252.913 262.533 253.373 263.692 254.027 264.721C252.922 264.287 251.723 264.096 251.465 264.589C251.119 265.252 252.599 266.906 253.802 267.708C253.729 267.699 253.654 267.691 253.573 267.685C252.169 267.579 249.974 268.055 249.925 268.841C249.891 269.393 250.923 269.951 252.027 270.271C250.928 270.725 249.901 271.431 249.995 271.991C250.108 272.67 251.833 272.907 253.19 272.768C252.176 273.838 251.077 275.753 251.536 276.315C251.872 276.726 252.955 276.3 253.933 275.652C253.464 276.836 253.209 278.138 253.639 278.455C254.207 278.872 255.765 277.418 256.586 276.166C256.503 277.697 256.836 279.801 257.497 279.884C257.997 279.947 258.55 278.838 258.891 277.64C259.254 278.868 259.849 280.028 260.361 279.951C261.027 279.851 261.318 277.695 261.194 276.163C262.041 277.363 263.467 278.646 264.005 278.251C264.435 277.934 264.18 276.632 263.711 275.449C264.689 276.097 265.772 276.523 266.108 276.111C266.567 275.55 265.468 273.634 264.454 272.564C265.811 272.703 267.536 272.466 267.649 271.787C267.743 271.227 266.716 270.521 265.616 270.067ZM259.672 274.398C259.388 274.441 259.129 274.502 258.931 274.657C258.722 274.428 258.416 274.358 258.075 274.316C257.694 274.268 257.348 274.263 257.083 274.505C256.987 274.21 256.749 274 256.472 273.796C256.234 273.621 256.003 273.477 255.762 273.449C255.743 273.125 255.556 272.85 255.327 272.569C255.181 272.391 255.035 272.231 254.873 272.124C255.107 271.811 255.08 271.415 255.007 270.981C254.956 270.671 254.889 270.388 254.739 270.179C254.937 269.938 254.986 269.598 255.01 269.222C255.035 268.812 255.025 268.44 254.809 268.163C255.366 268.24 255.635 267.859 255.884 267.381C256.027 267.108 256.142 266.845 256.15 266.578C256.443 266.535 256.681 266.311 256.919 266.041C257.123 265.81 257.297 265.581 257.362 265.318C257.595 265.534 257.914 265.567 258.266 265.567C258.609 265.567 258.92 265.536 259.152 265.334C259.332 265.513 259.584 265.606 259.861 265.684C260.126 265.758 260.376 265.808 260.603 265.758C260.687 265.966 260.834 266.156 261.003 266.346C261.241 266.617 261.479 266.841 261.771 266.884C261.78 267.15 261.895 267.413 262.037 267.687C262.205 268.008 262.382 268.286 262.649 268.41C262.617 268.597 262.621 268.802 262.634 269.019C262.658 269.395 262.707 269.734 262.905 269.975C262.755 270.185 262.688 270.467 262.637 270.777C262.564 271.211 262.537 271.607 262.771 271.92C262.609 272.027 262.463 272.187 262.317 272.366C262.088 272.646 261.901 272.921 261.882 273.246C261.641 273.273 261.41 273.417 261.172 273.592C260.847 273.831 260.576 274.079 260.524 274.464C260.28 274.334 259.988 274.351 259.672 274.398Z" fill="#306BF3"/>
<path d="M258.915 275.146C261.473 275.146 263.548 272.864 263.548 270.05C263.548 267.236 261.473 264.955 258.915 264.955C256.356 264.955 254.282 267.236 254.282 270.05C254.282 272.864 256.356 275.146 258.915 275.146Z" fill="#3F3D56"/>
<path d="M181.626 316.123C179.389 319.07 178.959 322.728 180.664 324.293C182.37 325.858 185.565 324.738 187.802 321.789C188.71 320.625 189.352 319.239 189.673 317.746L199.006 305.128L194.46 301.082L184.909 313.374C183.631 313.989 182.505 314.932 181.626 316.123Z" fill="#FFB6B6"/>
<path d="M222.416 253.757L225.664 267.908L209.765 295.897L193.535 313.837L188.274 309.037L204.643 286.638L217.05 257.778L222.416 253.757Z" fill="#E6E6E6"/>
<path d="M205.301 230.371C207.753 230.364 207.892 230.382 208.289 230.371C211.33 230.282 212.125 228.966 213.667 229.056C216.418 229.216 212.787 244.386 211.276 251.399C209.795 258.278 214.801 264.441 215.16 264.871C220.241 270.948 229.165 272.059 230.697 269.471C231.936 267.377 227.543 264.192 228.605 259.614C229.643 255.139 234.436 255.615 235.776 251.399C237.179 246.984 232.464 244.758 229.501 233.985C227.8 227.798 228.101 226.645 226.514 222.813C222.271 212.571 201.472 216.932 203.807 226.428C204.259 228.264 203.057 230.376 205.301 230.371Z" fill="#2F2E41"/>
</g>
<rect x="106" y="28" width="25" height="10" rx="5" fill="#306BF3"/>
<rect x="146" y="28" width="20" height="10" rx="5" fill="#ABC4FF"/>
<rect x="181" y="28" width="20" height="10" rx="5" fill="#ABC4FF"/>
<defs>
<clipPath id="clip0_38_367">
<rect width="232" height="248" fill="white" transform="translate(37 77)"/>
</clipPath>
</defs>
</svg>
