<svg width="306" height="360" viewBox="0 0 306 360" fill="none" xmlns="http://www.w3.org/2000/svg">
<rect width="306" height="360" rx="15" fill="#ABC4FF" fill-opacity="0.3"/>
<g clip-path="url(#clip0_10_2001)">
<path d="M265.928 327H84.6741C83.8596 326.999 83.0787 326.637 82.5028 325.994C81.9269 325.351 81.6029 324.479 81.602 323.569V198.921C81.6029 198.012 81.9269 197.14 82.5028 196.496C83.0787 195.853 83.8596 195.492 84.6741 195.49H265.928C266.742 195.492 267.523 195.853 268.099 196.496C268.675 197.14 268.999 198.012 269 198.921V323.569C268.999 324.479 268.675 325.351 268.099 325.994C267.523 326.637 266.742 326.999 265.928 327ZM84.6741 196.253C84.0406 196.254 83.4333 196.535 82.9853 197.035C82.5374 197.536 82.2854 198.214 82.2847 198.921V323.569C82.2854 324.277 82.5374 324.955 82.9853 325.455C83.4333 325.955 84.0406 326.237 84.6741 326.238H265.928C266.561 326.237 267.169 325.955 267.617 325.455C268.065 324.955 268.317 324.277 268.317 323.569V198.921C268.317 198.214 268.065 197.536 267.617 197.035C267.169 196.535 266.561 196.254 265.928 196.253H84.6741Z" fill="#3F3D56"/>
<path d="M244.992 302.49H230.656C230.43 302.49 230.213 302.389 230.053 302.21C229.893 302.032 229.803 301.789 229.802 301.537V293.151C229.803 292.898 229.893 292.656 230.053 292.477C230.213 292.299 230.43 292.198 230.656 292.198H240.981C241.117 292.198 241.248 292.258 241.344 292.365C241.44 292.472 241.493 292.618 241.493 292.77C241.493 292.921 241.44 293.067 241.344 293.174C241.248 293.281 241.117 293.341 240.981 293.341H231.338C231.203 293.341 231.073 293.402 230.977 293.509C230.881 293.616 230.827 293.762 230.826 293.913V300.774C230.827 300.926 230.881 301.071 230.977 301.179C231.073 301.286 231.203 301.346 231.338 301.346H244.31C244.445 301.346 244.575 301.286 244.671 301.179C244.767 301.071 244.821 300.926 244.822 300.774V297.14C244.822 296.988 244.876 296.843 244.972 296.735C245.068 296.628 245.198 296.568 245.334 296.568C245.469 296.568 245.6 296.628 245.696 296.735C245.792 296.843 245.846 296.988 245.846 297.14V301.537C245.845 301.789 245.755 302.032 245.595 302.21C245.435 302.389 245.219 302.49 244.992 302.49Z" fill="#3F3D56"/>
<path d="M219.676 218.362H109.422C109.014 218.362 108.623 218.181 108.335 217.859C108.047 217.538 107.885 217.101 107.885 216.646C107.885 216.191 108.047 215.755 108.335 215.433C108.623 215.112 109.014 214.931 109.422 214.931H219.676C220.083 214.931 220.474 215.112 220.762 215.433C221.05 215.755 221.212 216.191 221.212 216.646C221.212 217.101 221.05 217.538 220.762 217.859C220.474 218.181 220.083 218.362 219.676 218.362Z" fill="#CCCCCC"/>
<path d="M219.676 232.466H109.422C109.014 232.466 108.623 232.285 108.335 231.963C108.047 231.641 107.885 231.205 107.885 230.75C107.885 230.295 108.047 229.859 108.335 229.537C108.623 229.216 109.014 229.035 109.422 229.035H219.676C220.083 229.035 220.474 229.216 220.762 229.537C221.05 229.859 221.212 230.295 221.212 230.75C221.212 231.205 221.05 231.641 220.762 231.963C220.474 232.285 220.083 232.466 219.676 232.466Z" fill="#CCCCCC"/>
<path d="M219.676 246.57H109.422C109.014 246.57 108.623 246.389 108.335 246.067C108.047 245.745 107.885 245.309 107.885 244.854C107.885 244.399 108.047 243.963 108.335 243.641C108.623 243.32 109.014 243.139 109.422 243.139H219.676C220.083 243.139 220.474 243.32 220.762 243.641C221.05 243.963 221.212 244.399 221.212 244.854C221.212 245.309 221.05 245.745 220.762 246.067C220.474 246.389 220.083 246.57 219.676 246.57Z" fill="#CCCCCC"/>
<path d="M219.676 260.673H109.422C109.014 260.673 108.623 260.493 108.335 260.171C108.047 259.849 107.885 259.413 107.885 258.958C107.885 258.503 108.047 258.067 108.335 257.745C108.623 257.424 109.014 257.243 109.422 257.243H219.676C220.083 257.243 220.474 257.424 220.762 257.745C221.05 258.067 221.212 258.503 221.212 258.958C221.212 259.413 221.05 259.849 220.762 260.171C220.474 260.493 220.083 260.673 219.676 260.673Z" fill="#CCCCCC"/>
<path d="M219.676 274.777H109.422C109.014 274.777 108.623 274.597 108.335 274.275C108.047 273.953 107.885 273.517 107.885 273.062C107.885 272.607 108.047 272.171 108.335 271.849C108.623 271.527 109.014 271.347 109.422 271.347H219.676C220.083 271.347 220.474 271.527 220.762 271.849C221.05 272.171 221.212 272.607 221.212 273.062C221.212 273.517 221.05 273.953 220.762 274.275C220.474 274.597 220.083 274.777 219.676 274.777Z" fill="#CCCCCC"/>
<path d="M238.108 221.602C240.559 221.602 242.546 219.383 242.546 216.646C242.546 213.909 240.559 211.691 238.108 211.691C235.658 211.691 233.671 213.909 233.671 216.646C233.671 219.383 235.658 221.602 238.108 221.602Z" fill="#306BF3"/>
<path d="M238.108 235.706C240.559 235.706 242.546 233.487 242.546 230.75C242.546 228.013 240.559 225.795 238.108 225.795C235.658 225.795 233.671 228.013 233.671 230.75C233.671 233.487 235.658 235.706 238.108 235.706Z" fill="#FF6584"/>
<path d="M238.108 249.809C240.559 249.809 242.546 247.591 242.546 244.854C242.546 242.117 240.559 239.899 238.108 239.899C235.658 239.899 233.671 242.117 233.671 244.854C233.671 247.591 235.658 249.809 238.108 249.809Z" fill="#306BF3"/>
<path d="M238.108 263.913C240.559 263.913 242.546 261.695 242.546 258.958C242.546 256.221 240.559 254.003 238.108 254.003C235.658 254.003 233.671 256.221 233.671 258.958C233.671 261.695 235.658 263.913 238.108 263.913Z" fill="#F2F2F2"/>
<path d="M238.108 278.017C240.559 278.017 242.546 275.799 242.546 273.062C242.546 270.325 240.559 268.106 238.108 268.106C235.658 268.106 233.671 270.325 233.671 273.062C233.671 275.799 235.658 278.017 238.108 278.017Z" fill="#F2F2F2"/>
<path d="M237.995 299.805C237.869 299.805 237.744 299.778 237.628 299.724C237.512 299.671 237.406 299.592 237.318 299.492L234.29 296.112C234.194 296.004 234.14 295.859 234.14 295.707C234.14 295.556 234.194 295.41 234.29 295.303C234.388 295.199 234.517 295.141 234.652 295.141C234.787 295.141 234.917 295.199 235.014 295.303L237.874 298.497C237.906 298.532 237.95 298.551 237.995 298.551C238.04 298.551 238.083 298.532 238.115 298.497L247.632 287.87C247.729 287.766 247.859 287.708 247.994 287.708C248.129 287.708 248.258 287.766 248.356 287.87C248.452 287.977 248.506 288.123 248.506 288.274C248.506 288.426 248.452 288.571 248.356 288.678L238.672 299.492C238.583 299.592 238.478 299.671 238.361 299.724C238.245 299.778 238.12 299.805 237.995 299.805Z" fill="#306BF3"/>
<path opacity="0.1" d="M237.995 309.351C251.003 309.351 261.548 308.668 261.548 307.826C261.548 306.984 251.003 306.302 237.995 306.302C224.987 306.302 214.442 306.984 214.442 307.826C214.442 308.668 224.987 309.351 237.995 309.351Z" fill="black"/>
<path d="M64.2232 172.742H38.5294C38.1239 172.741 37.7351 172.561 37.4484 172.241C37.1617 171.921 37.0004 171.487 37 171.034V156.004C37.0004 155.552 37.1617 155.117 37.4484 154.797C37.7351 154.477 38.1239 154.297 38.5294 154.297H57.035C57.1557 154.296 57.2752 154.323 57.3867 154.374C57.4983 154.425 57.5996 154.501 57.685 154.596C57.7704 154.691 57.8382 154.804 57.8844 154.929C57.9306 155.053 57.9544 155.187 57.9544 155.321C57.9544 155.456 57.9306 155.589 57.8844 155.714C57.8382 155.838 57.7704 155.951 57.685 156.047C57.5996 156.142 57.4983 156.217 57.3867 156.269C57.2752 156.32 57.1557 156.346 57.035 156.346H39.7529C39.5096 156.346 39.2763 156.454 39.1043 156.646C38.9323 156.839 38.8355 157.099 38.8352 157.371V169.668C38.8355 169.939 38.9323 170.2 39.1043 170.392C39.2763 170.584 39.5096 170.692 39.7529 170.692H62.9996C63.2429 170.692 63.4762 170.584 63.6482 170.392C63.8202 170.2 63.917 169.939 63.9173 169.668V163.154C63.9173 162.882 64.014 162.621 64.186 162.429C64.3581 162.237 64.5915 162.129 64.8349 162.129C65.0783 162.129 65.3117 162.237 65.4838 162.429C65.6559 162.621 65.7526 162.882 65.7526 163.154V171.034C65.7521 171.487 65.5909 171.921 65.3041 172.241C65.0174 172.561 64.6287 172.741 64.2232 172.742Z" fill="#3F3D56"/>
<path d="M51.6822 167.93C51.4568 167.931 51.2335 167.882 51.0253 167.785C50.817 167.689 50.6278 167.548 50.4685 167.37L45.0425 161.311C44.8705 161.119 44.7739 160.858 44.7739 160.586C44.7739 160.315 44.8705 160.054 45.0425 159.862C45.2173 159.676 45.4497 159.572 45.6914 159.572C45.9331 159.572 46.1655 159.676 46.3403 159.862L51.4659 165.586C51.524 165.648 51.6014 165.683 51.682 165.683C51.7626 165.683 51.84 165.648 51.8981 165.586L68.9538 146.54C69.1286 146.354 69.361 146.25 69.6026 146.25C69.8443 146.25 70.0766 146.354 70.2514 146.54C70.4234 146.732 70.52 146.993 70.52 147.265C70.5199 147.537 70.4232 147.797 70.2511 147.989L52.8961 167.37C52.7368 167.548 52.5475 167.689 52.3392 167.785C52.1309 167.882 51.9076 167.931 51.6822 167.93Z" fill="#306BF3"/>
<path d="M85.7401 197.411H116.802C117.556 197.411 118.168 196.728 118.168 195.886V187.881C118.168 187.039 117.556 186.357 116.802 186.357H85.7401C84.986 186.357 84.3747 187.039 84.3747 187.881V195.886C84.3747 196.728 84.986 197.411 85.7401 197.411Z" fill="#2F2E41"/>
<path d="M116.12 185.975H69.0142C68.7453 185.975 68.4789 186.035 68.2304 186.15C67.982 186.264 67.7562 186.433 67.566 186.645C67.3758 186.858 67.225 187.11 67.122 187.387C67.0191 187.665 66.9661 187.962 66.9661 188.263V224.475C66.9662 225.082 67.1819 225.664 67.566 226.093C67.9501 226.522 68.471 226.762 69.0142 226.762H74.8171C75.3602 226.762 75.8812 226.522 76.2652 226.093C76.6493 225.664 76.8651 225.082 76.8651 224.475V197.03H84.3747V224.857C84.3747 225.463 84.5905 226.045 84.9746 226.474C85.3587 226.903 85.8796 227.144 86.4228 227.144H92.2256C92.7688 227.144 93.2897 226.903 93.6738 226.474C94.0579 226.045 94.2737 225.463 94.2737 224.857V197.03H116.12C116.663 197.03 117.184 196.789 117.568 196.36C117.952 195.931 118.168 195.349 118.168 194.743V188.263C118.168 187.962 118.115 187.665 118.012 187.387C117.909 187.11 117.758 186.858 117.568 186.645C117.378 186.433 117.152 186.264 116.903 186.15C116.655 186.035 116.389 185.975 116.12 185.975Z" fill="#2F2E41"/>
<path d="M127.944 197.625L83.1757 196.572C82.8717 196.565 82.573 196.482 82.3011 196.33C82.0293 196.178 81.7912 195.96 81.6041 195.692C81.4171 195.425 81.2858 195.114 81.2197 194.782C81.1536 194.451 81.1545 194.107 81.2222 193.776L92.1221 140.486C92.2254 139.981 92.4792 139.53 92.8419 139.207C93.2046 138.884 93.6548 138.708 94.1187 138.708H105.841C109.694 138.708 113.43 140.19 116.421 142.903C119.412 145.617 121.475 149.397 122.264 153.61L129.991 194.87C130.054 195.207 130.049 195.555 129.974 195.889C129.9 196.223 129.759 196.534 129.563 196.799C129.366 197.064 129.118 197.275 128.838 197.418C128.557 197.561 128.252 197.632 127.944 197.625Z" fill="#2F2E41"/>
<path d="M100.22 133.957C110.309 133.957 118.488 124.823 118.488 113.556C118.488 102.289 110.309 93.1553 100.22 93.1553C90.1304 93.1553 81.9513 102.289 81.9513 113.556C81.9513 124.823 90.1304 133.957 100.22 133.957Z" fill="#306BF3"/>
<path d="M91.9319 102.572C89.7996 102.01 87.4975 101.254 85.9767 99.3795C84.682 97.7836 84.0748 95.3206 85.222 93.4286C86.2696 91.7009 88.336 91.067 90.0752 90.743C92.0967 90.3664 94.1742 90.3115 96.0711 89.3507C97.0024 88.8802 97.8152 88.1601 98.4372 87.2543C99.0147 86.3488 99.5159 85.3856 99.9344 84.377C100.331 83.3941 100.861 82.4852 101.505 81.6825C102.238 80.881 103.183 80.3656 104.2 80.2132C106.489 79.8248 108.661 81.0059 110.462 82.4726C112.206 83.9208 113.788 85.5973 115.174 87.4661C118.322 91.6558 120.49 96.6531 121.481 102.009C121.614 102.729 122.601 102.425 122.468 101.705C121.52 96.6364 119.551 91.8753 116.71 87.7829C115.303 85.7423 113.687 83.8928 111.895 82.2722C110.039 80.6029 107.897 79.1481 105.456 79.0102C104.328 78.9368 103.201 79.1866 102.183 79.736C101.248 80.2866 100.461 81.1053 99.9025 82.1081C98.7526 84.0557 98.1979 86.5724 96.3426 87.8898C94.4634 89.2243 92.1106 89.2374 89.9789 89.6087C88.0828 89.939 85.9719 90.6365 84.6883 92.3369C83.2685 94.2178 83.3219 96.7809 84.3824 98.8553C85.5607 101.16 87.75 102.418 89.9485 103.168C90.5131 103.36 91.0852 103.523 91.6597 103.674C92.3005 103.843 92.5741 102.741 91.9319 102.572Z" fill="#2F2E41"/>
<path d="M102.194 120.368C101.065 120.332 99.6601 120.288 98.5787 119.406C98.2565 119.132 97.9918 118.783 97.8031 118.384C97.6145 117.984 97.5064 117.542 97.4865 117.091C97.467 116.77 97.5141 116.449 97.6243 116.152C97.7345 115.855 97.9046 115.59 98.1215 115.379C98.6864 114.845 99.5116 114.72 100.401 115.012L99.4797 107.493L100.156 107.389L101.239 116.229L100.674 115.94C100.019 115.604 99.1207 115.434 98.5622 115.961C98.425 116.099 98.3182 116.27 98.2499 116.461C98.1817 116.653 98.1539 116.859 98.1687 117.064C98.1852 117.4 98.2664 117.728 98.4066 118.026C98.5468 118.324 98.7429 118.585 98.9814 118.79C99.8229 119.477 100.943 119.566 102.213 119.605L102.194 120.368Z" fill="#2F2E41"/>
<path d="M96.1348 108.141H92.458V108.904H96.1348V108.141Z" fill="#2F2E41"/>
<path d="M107.74 108.141H104.064V108.904H107.74V108.141Z" fill="#2F2E41"/>
<path d="M65.2763 177.679C64.8501 177.679 64.4329 177.542 64.0743 177.285C63.7157 177.028 63.4309 176.661 63.2539 176.228L61.1652 171.108C61.0444 170.812 60.977 170.492 60.9669 170.167C60.9568 169.842 61.0041 169.518 61.1062 169.213C61.2083 168.908 61.3631 168.629 61.5619 168.391C61.7606 168.153 61.9994 167.961 62.2645 167.826L100.476 148.386C101.012 148.115 101.622 148.091 102.173 148.322C102.724 148.552 103.171 149.017 103.415 149.614L105.504 154.734C105.747 155.332 105.768 156.014 105.562 156.629C105.356 157.244 104.94 157.743 104.405 158.016L66.1928 177.456C65.9051 177.603 65.5926 177.678 65.2763 177.679Z" fill="#306BF3"/>
</g>
<rect x="143" y="24" width="25" height="10" rx="5" fill="#306BF3"/>
<rect x="108" y="24" width="20" height="10" rx="5" fill="#ABC4FF"/>
<rect x="183" y="24" width="20" height="10" rx="5" fill="#ABC4FF"/>
<defs>
<clipPath id="clip0_10_2001">
<rect width="232" height="248" fill="white" transform="translate(37 79)"/>
</clipPath>
</defs>
</svg>
