<svg width="306" height="360" viewBox="0 0 306 360" fill="none" xmlns="http://www.w3.org/2000/svg">
<rect width="306" height="360" rx="15" fill="#ABC4FF" fill-opacity="0.3"/>
<g clip-path="url(#clip0_7_561)">
<path d="M63.3325 290.511L45.3199 282.944C43.3369 271.134 43.7815 258.921 46.6153 247.364C53.4486 267.144 74.7613 272.674 86.5949 288.684C90.2539 293.711 92.925 299.664 94.4104 306.101C95.8958 312.538 96.1573 319.295 95.1757 325.87L98.6247 341.603C89.7138 340.375 81.1303 336.838 73.4657 331.237C65.8011 325.635 59.2376 318.103 54.2273 309.158C51.4579 304.106 49.2286 298.656 47.5921 292.934C55.3674 292.271 63.3325 290.511 63.3325 290.511Z" fill="#F2F2F2"/>
<path d="M185.794 111.019V283.97L185.294 291.171C184.418 303.672 180.013 315.437 172.812 324.514C171.79 325.798 170.722 327.014 169.607 328.162C168.234 329.586 166.79 330.908 165.283 332.12C164.421 332.817 163.538 333.474 162.64 334.097C157.417 337.723 151.648 340.069 145.667 340.998H102.806C99.3957 341.001 96.0995 339.518 93.529 336.822C92.2564 335.49 91.1899 333.898 90.3785 332.12C89.2449 329.624 88.6521 326.826 88.6548 323.982V111.019C88.6596 106.507 90.1525 102.182 92.8061 98.9912C95.4597 95.8007 99.0574 94.0058 102.81 94H171.642C171.805 94 171.964 94.0044 172.127 94.0087C172.232 94.0131 172.337 94.0174 172.442 94.0305C172.583 94.0349 172.725 94.0479 172.862 94.0653C173.04 94.0784 173.214 94.1001 173.387 94.1263C173.547 94.1524 173.706 94.1785 173.865 94.209C173.898 94.2134 173.927 94.2221 173.96 94.2264C174.162 94.2656 174.365 94.3091 174.564 94.3614C174.763 94.4093 174.966 94.4659 175.162 94.5268C175.303 94.5704 175.448 94.6183 175.589 94.6662C175.593 94.6662 175.6 94.6705 175.604 94.6705C176.02 94.8185 176.433 94.9883 176.838 95.1843C176.965 95.2409 177.092 95.3062 177.215 95.3715L177.269 95.3976C177.371 95.4499 177.468 95.5021 177.566 95.5587C177.86 95.7198 178.149 95.8983 178.435 96.0856C178.906 96.3975 179.362 96.7405 179.801 97.1131C179.942 97.2306 180.079 97.3569 180.213 97.4832C180.326 97.5833 180.438 97.6878 180.547 97.801C180.556 97.8068 180.564 97.8141 180.572 97.8228C180.586 97.8358 180.601 97.8533 180.615 97.8663C180.713 97.9578 180.807 98.0535 180.898 98.1493C181.075 98.3322 181.249 98.5238 181.419 98.7197C181.466 98.7719 181.513 98.8242 181.56 98.8808C181.608 98.933 181.651 98.9896 181.698 99.0462C181.745 99.0985 181.789 99.1551 181.832 99.2073C181.858 99.2341 181.882 99.2633 181.904 99.2944C182.035 99.4599 182.162 99.6297 182.285 99.7995C182.44 100.013 182.592 100.23 182.734 100.453C182.857 100.635 182.973 100.818 183.085 101.005C183.19 101.175 183.288 101.345 183.386 101.519C183.412 101.563 183.436 101.608 183.458 101.654C183.559 101.833 183.653 102.016 183.748 102.198C183.983 102.66 184.197 103.139 184.392 103.622C184.465 103.805 184.533 103.984 184.599 104.166C184.682 104.388 184.758 104.611 184.83 104.833C184.859 104.915 184.885 105.002 184.91 105.085C184.95 105.211 184.986 105.338 185.022 105.464C185.062 105.603 185.102 105.747 185.138 105.886L185.225 106.226C185.276 106.43 185.319 106.631 185.363 106.835C185.388 106.957 185.413 107.079 185.435 107.205C185.605 108.095 185.715 108.999 185.765 109.909C185.768 110.022 185.776 110.131 185.779 110.245C185.79 110.501 185.794 110.758 185.794 111.019Z" fill="#3F3D56"/>
<path d="M87.6728 171.486C87.2505 171.485 86.8456 171.283 86.547 170.924C86.2484 170.565 86.0804 170.078 86.0799 169.571V156.547C86.0796 156.295 86.1206 156.046 86.2005 155.813C86.2804 155.581 86.3977 155.369 86.5456 155.191C86.6936 155.013 86.8693 154.871 87.0627 154.775C87.2561 154.679 87.4634 154.629 87.6728 154.629C87.8822 154.629 88.0895 154.679 88.283 154.775C88.4764 154.871 88.6521 155.013 88.8 155.191C88.948 155.369 89.0653 155.581 89.1452 155.813C89.2251 156.046 89.2661 156.295 89.2657 156.547V169.571C89.2652 170.078 89.0973 170.565 88.7986 170.924C88.5 171.283 88.0951 171.485 87.6728 171.486Z" fill="#3F3D56"/>
<path d="M87.3542 146.205C86.9319 146.204 86.527 146.002 86.2284 145.643C85.9298 145.284 85.7618 144.797 85.7613 144.29V131.266C85.762 130.759 85.9301 130.272 86.2287 129.914C86.5274 129.555 86.9322 129.354 87.3542 129.354C87.7763 129.354 88.1811 129.555 88.4798 129.914C88.7784 130.272 88.9465 130.759 88.9472 131.266V144.29C88.9467 144.797 88.7787 145.284 88.4801 145.643C88.1814 146.002 87.7766 146.204 87.3542 146.205Z" fill="#3F3D56"/>
<path d="M126.467 100.327C126.467 99.8197 126.635 99.3329 126.934 98.9739C127.233 98.6148 127.637 98.4129 128.06 98.4123H138.892C139.314 98.4123 139.719 98.614 140.018 98.9732C140.317 99.3324 140.484 99.8195 140.484 100.327C140.484 100.835 140.317 101.323 140.018 101.682C139.719 102.041 139.314 102.243 138.892 102.243H128.06C127.637 102.242 127.233 102.04 126.934 101.681C126.635 101.322 126.467 100.835 126.467 100.327Z" fill="white"/>
<path d="M87.6728 193.703C87.2505 193.702 86.8456 193.5 86.547 193.141C86.2484 192.782 86.0804 192.295 86.0799 191.787V178.764C86.0796 178.512 86.1206 178.263 86.2005 178.03C86.2804 177.797 86.3977 177.586 86.5456 177.408C86.6936 177.229 86.8693 177.088 87.0627 176.992C87.2561 176.895 87.4634 176.846 87.6728 176.846C87.8822 176.846 88.0895 176.895 88.283 176.992C88.4764 177.088 88.6521 177.229 88.8 177.408C88.948 177.586 89.0653 177.797 89.1452 178.03C89.2251 178.263 89.2661 178.512 89.2657 178.764V191.787C89.2652 192.295 89.0973 192.782 88.7986 193.141C88.5 193.5 88.0951 193.702 87.6728 193.703Z" fill="#3F3D56"/>
<path d="M186.894 165.402C186.472 165.401 186.067 165.2 185.768 164.84C185.469 164.481 185.301 163.995 185.301 163.487V150.463C185.301 150.212 185.342 149.962 185.421 149.73C185.501 149.497 185.619 149.285 185.767 149.107C185.915 148.929 186.09 148.788 186.284 148.691C186.477 148.595 186.684 148.545 186.894 148.545C187.103 148.545 187.311 148.595 187.504 148.691C187.697 148.788 187.873 148.929 188.021 149.107C188.169 149.285 188.286 149.497 188.366 149.73C188.446 149.962 188.487 150.212 188.487 150.463V163.487C188.486 163.995 188.318 164.481 188.02 164.84C187.721 165.2 187.316 165.401 186.894 165.402Z" fill="#3F3D56"/>
<path d="M144.945 102.243C145.824 102.243 146.538 101.385 146.538 100.327C146.538 99.2697 145.824 98.4123 144.945 98.4123C144.065 98.4123 143.352 99.2697 143.352 100.327C143.352 101.385 144.065 102.243 144.945 102.243Z" fill="white"/>
<path d="M178.748 117.164H95.7053C95.6092 117.161 95.5178 117.114 95.4506 117.031C95.3834 116.948 95.3457 116.837 95.3457 116.722C95.3457 116.606 95.3834 116.495 95.4506 116.413C95.5178 116.33 95.6092 116.282 95.7053 116.28H178.748C178.844 116.282 178.936 116.33 179.003 116.413C179.07 116.495 179.108 116.606 179.108 116.722C179.108 116.837 179.07 116.948 179.003 117.031C178.936 117.114 178.844 117.161 178.748 117.164Z" fill="white"/>
<path d="M101.999 114.023C103.189 114.023 104.154 112.837 104.154 111.374C104.154 109.911 103.189 108.726 101.999 108.726C100.809 108.726 99.8443 109.911 99.8443 111.374C99.8443 112.837 100.809 114.023 101.999 114.023Z" fill="white"/>
<path d="M109.443 114.023C110.633 114.023 111.598 112.837 111.598 111.374C111.598 109.911 110.633 108.726 109.443 108.726C108.253 108.726 107.288 109.911 107.288 111.374C107.288 112.837 108.253 114.023 109.443 114.023Z" fill="white"/>
<path d="M116.887 114.023C118.077 114.023 119.041 112.837 119.041 111.374C119.041 109.911 118.077 108.726 116.887 108.726C115.697 108.726 114.732 109.911 114.732 111.374C114.732 112.837 115.697 114.023 116.887 114.023Z" fill="white"/>
<path d="M174.266 109.382H168.979C168.874 109.385 168.774 109.436 168.701 109.526C168.627 109.616 168.586 109.737 168.586 109.863C168.586 109.989 168.627 110.11 168.701 110.2C168.774 110.29 168.874 110.342 168.979 110.345H174.266C174.371 110.342 174.471 110.29 174.544 110.2C174.618 110.11 174.659 109.989 174.659 109.863C174.659 109.737 174.618 109.616 174.544 109.526C174.471 109.436 174.371 109.385 174.266 109.382Z" fill="white"/>
<path d="M174.266 111.189H168.979C168.874 111.192 168.774 111.243 168.701 111.333C168.627 111.423 168.586 111.544 168.586 111.67C168.586 111.796 168.627 111.917 168.701 112.007C168.774 112.097 168.874 112.149 168.979 112.152H174.266C174.371 112.149 174.471 112.097 174.544 112.007C174.618 111.917 174.659 111.796 174.659 111.67C174.659 111.544 174.618 111.423 174.544 111.333C174.471 111.243 174.371 111.192 174.266 111.189Z" fill="white"/>
<path d="M174.266 112.994H168.979C168.874 112.996 168.774 113.048 168.701 113.138C168.627 113.228 168.586 113.349 168.586 113.475C168.586 113.601 168.627 113.722 168.701 113.812C168.774 113.902 168.874 113.954 168.979 113.956H174.266C174.371 113.954 174.471 113.902 174.544 113.812C174.618 113.722 174.659 113.601 174.659 113.475C174.659 113.349 174.618 113.228 174.544 113.138C174.471 113.048 174.371 112.996 174.266 112.994Z" fill="white"/>
<path d="M115.486 184.731C115.522 185.348 115.673 185.948 115.928 186.485C116.499 187.605 117.362 188.465 118.382 188.932C119.624 189.543 121.007 189.562 122.325 189.426C123.548 189.299 124.759 189.006 125.987 188.946C126.937 188.909 127.888 188.936 128.835 189.027C130.672 189.184 132.502 189.475 134.32 189.828C134.813 189.922 135.304 190.023 135.795 190.132C135.841 190.137 135.887 190.147 135.932 190.162C135.94 190.167 135.955 190.163 135.963 190.17C135.978 190.181 135.903 190.141 135.948 190.186C136.011 190.266 136.068 190.353 136.116 190.446L136.788 191.485C136.964 191.812 137.172 192.112 137.408 192.38C137.583 192.543 137.795 192.64 138.016 192.658C138.237 192.677 138.458 192.616 138.651 192.484C138.852 192.331 139.013 192.112 139.113 191.853C139.268 191.512 139.452 191.192 139.663 190.899C140.462 189.778 141.572 189.089 142.501 188.146C142.951 187.708 143.334 187.18 143.636 186.586C143.893 186.048 144.052 185.451 144.105 184.834C144.186 183.57 143.924 182.308 143.358 181.237C142.773 180.092 141.933 179.167 140.932 178.568C139.797 177.913 138.572 177.509 137.318 177.377C135.991 177.226 134.658 177.173 133.325 177.218C131.833 177.238 130.343 177.317 128.855 177.455C127.366 177.593 125.883 177.79 124.405 178.046C122.978 178.262 121.562 178.574 120.164 178.98C118.912 179.303 117.752 180.016 116.8 181.047C116.378 181.515 116.042 182.085 115.815 182.72C115.589 183.355 115.476 184.04 115.486 184.731Z" fill="#E6E6E6"/>
<path d="M136.189 180.547H122.06C121.78 180.547 121.511 180.681 121.313 180.919C121.115 181.157 121.004 181.48 121.004 181.816V182.021C121.004 182.358 121.115 182.68 121.313 182.919C121.511 183.157 121.78 183.291 122.06 183.291H136.189C136.469 183.291 136.737 183.157 136.935 182.919C137.133 182.68 137.245 182.358 137.245 182.021V181.816C137.245 181.48 137.133 181.157 136.935 180.919C136.737 180.681 136.469 180.547 136.189 180.547Z" fill="white"/>
<path d="M136.189 184.03H122.06C121.78 184.03 121.511 184.164 121.313 184.402C121.115 184.64 121.004 184.963 121.004 185.3V185.505C121.004 185.841 121.115 186.164 121.313 186.402C121.511 186.64 121.78 186.774 122.06 186.774H136.189C136.469 186.774 136.737 186.64 136.935 186.402C137.133 186.164 137.245 185.841 137.245 185.505V185.3C137.245 184.963 137.133 184.64 136.935 184.402C136.737 184.164 136.469 184.03 136.189 184.03Z" fill="white"/>
<path d="M165.525 159.479C165.489 160.096 165.338 160.695 165.083 161.233C164.512 162.352 163.649 163.213 162.629 163.68C161.387 164.29 160.004 164.309 158.686 164.173C157.463 164.046 156.252 163.753 155.024 163.693C154.074 163.656 153.123 163.684 152.176 163.775C150.339 163.931 148.509 164.222 146.69 164.575C146.198 164.669 145.707 164.771 145.216 164.879C145.17 164.884 145.124 164.894 145.079 164.91C145.07 164.914 145.056 164.911 145.048 164.917C145.033 164.928 145.108 164.888 145.063 164.933C144.999 165.013 144.943 165.1 144.895 165.193L144.223 166.232C144.047 166.559 143.838 166.859 143.603 167.127C143.427 167.29 143.216 167.387 142.995 167.405C142.773 167.424 142.553 167.363 142.36 167.231C142.159 167.078 141.998 166.859 141.898 166.6C141.743 166.259 141.559 165.939 141.348 165.646C140.549 164.525 139.439 163.836 138.51 162.893C138.06 162.455 137.676 161.928 137.375 161.333C137.118 160.796 136.958 160.199 136.906 159.582C136.825 158.317 137.087 157.055 137.653 155.985C138.238 154.84 139.078 153.915 140.079 153.315C141.214 152.66 142.438 152.256 143.693 152.124C145.02 151.973 146.353 151.92 147.686 151.965C149.178 151.985 150.668 152.064 152.155 152.202C153.645 152.34 155.128 152.537 156.606 152.793C158.033 153.01 159.448 153.321 160.846 153.727C162.099 154.05 163.259 154.763 164.21 155.794C164.633 156.262 164.969 156.832 165.195 157.467C165.422 158.102 165.534 158.788 165.525 159.479Z" fill="#E6E6E6"/>
<path d="M143.766 156.564V156.768C143.766 157.105 143.878 157.428 144.076 157.666C144.274 157.904 144.542 158.038 144.822 158.038H158.951C159.231 158.038 159.5 157.904 159.697 157.666C159.895 157.428 160.007 157.105 160.007 156.768V156.564C160.007 156.227 159.895 155.904 159.697 155.666C159.5 155.428 159.231 155.294 158.951 155.294H144.822C144.542 155.294 144.274 155.428 144.076 155.666C143.878 155.904 143.766 156.227 143.766 156.564Z" fill="white"/>
<path d="M143.766 160.047V160.252C143.766 160.588 143.878 160.911 144.076 161.149C144.274 161.387 144.542 161.521 144.822 161.522H158.951C159.231 161.521 159.5 161.387 159.697 161.149C159.895 160.911 160.007 160.588 160.007 160.252V160.047C160.007 159.71 159.895 159.388 159.697 159.15C159.5 158.912 159.231 158.778 158.951 158.777H144.822C144.542 158.778 144.274 158.912 144.076 159.15C143.878 159.388 143.766 159.71 143.766 160.047Z" fill="white"/>
<path d="M234.12 335.648L229.633 335.648L227.499 314.841L234.121 314.841L234.12 335.648Z" fill="#A0616A"/>
<path d="M234.001 333.885L229.213 331.547L229.072 331.478L226.429 333.885C224.978 333.885 223.583 334.558 222.535 335.765C221.488 336.971 220.868 338.617 220.805 340.36C220.798 340.455 220.798 340.556 220.798 340.656V340.878H235.264V333.885H234.001Z" fill="#2F2E41"/>
<path d="M223.613 330.628L219.381 332.419L211.623 313.643L217.87 311L223.613 330.628Z" fill="#A0616A"/>
<path d="M223.014 329.013L217.852 328.718L217.7 328.708L215.871 332.035C214.503 332.613 213.373 333.805 212.717 335.361C212.062 336.917 211.931 338.717 212.353 340.386C212.373 340.479 212.401 340.574 212.428 340.668L212.49 340.878L226.136 335.105L224.206 328.509L223.014 329.013Z" fill="#2F2E41"/>
<path d="M235.706 245.932C239.81 245.741 234.726 285.07 234.726 285.07C234.726 285.07 236.213 319.598 235.898 321.41C235.582 323.223 235.858 328.11 235.858 328.11C235.054 326.35 226.757 327.678 226.757 327.678L225.628 292.683L219.866 264.644L211.877 283.439L219.534 312.288C219.534 312.288 222.635 315.738 222.305 317.102C221.975 318.465 213.853 321.54 212.36 321.609C210.868 321.679 211.542 319.401 211.469 317.157C211.397 314.914 204.373 294.123 201.903 287.049C199.432 279.975 201.353 270 202.614 262.752C203.875 255.504 210.51 241.902 210.51 241.902C218.745 230.734 231.601 246.124 235.706 245.932Z" fill="#2F2E41"/>
<path d="M233.574 252.237C223.395 252.238 217.785 249.788 214.806 247.6C211.164 244.925 210.541 242.104 210.516 241.985L210.509 241.951L210.863 236.587L211.018 236.17C211.733 234.247 211.828 232.073 211.284 230.071L211.273 230.03L211.276 229.987L213.656 192.872L222.079 189.555L224.529 186.595L235.439 186.405L236.959 190.11L245.56 194.003L241.334 224.244L239.309 228.441L240.124 233.014L240.118 233.056L237.461 252.126L237.315 252.133C236.004 252.204 234.757 252.239 233.574 252.237Z" fill="#E6E6E6"/>
<path d="M237.817 173.92C237.49 176.79 236.228 179.386 234.309 181.138C232.391 182.89 229.972 183.655 227.585 183.265C225.197 182.874 223.037 181.36 221.577 179.055C220.118 176.75 219.479 173.843 219.801 170.972L219.819 170.817C220.196 167.984 221.483 165.443 223.404 163.742C225.325 162.041 227.725 161.315 230.086 161.723C232.448 162.13 234.582 163.637 236.027 165.919C237.473 168.2 238.115 171.074 237.814 173.919L237.817 173.92Z" fill="#A0616A"/>
<path d="M235.503 179.55C235.97 178.41 236.45 177.185 236.319 175.924C236.187 174.663 235.159 173.458 234.149 173.833C233.545 174.057 233.088 174.774 232.457 174.811C231.588 174.861 231.09 173.666 230.82 172.672L229.719 168.624C228.661 169.615 227.435 170.313 226.127 170.669C224.82 171.024 223.463 171.028 222.154 170.68C221.131 170.399 220.098 169.851 219.499 168.816C218.899 167.782 218.902 166.177 219.725 165.395C220.128 165.011 220.665 164.865 221.051 164.456C221.29 164.202 221.455 163.862 221.521 163.487C221.587 163.112 221.551 162.721 221.418 162.372C221.284 162.024 221.062 161.736 220.782 161.551C220.502 161.367 220.181 161.296 219.865 161.348L222.637 160.931L221.811 159.135C222.125 159.392 222.48 159.567 222.854 159.65C223.228 159.732 223.611 159.72 223.981 159.613C224.727 159.452 225.429 159.083 226.159 158.836C227.928 158.293 229.796 158.459 231.479 159.309C233.163 160.159 234.569 161.646 235.485 163.545C236.168 163.271 236.903 163.253 237.594 163.493C238.285 163.733 238.9 164.219 239.355 164.889C240.098 166.021 240.299 167.533 240.328 168.974C240.382 171.817 239.867 174.633 238.825 177.186C238.527 177.997 238.098 178.729 237.563 179.339C237.293 179.642 236.972 179.87 236.622 180.008C236.272 180.146 235.9 180.19 235.534 180.137" fill="#2F2E41"/>
<path d="M132.713 277.645C132.67 277.645 132.627 277.644 132.584 277.642C132.08 277.62 131.588 277.452 131.149 277.152C130.711 276.852 130.339 276.429 130.065 275.92C128.018 272.24 125.505 268.967 122.617 266.219C120.869 264.539 119.043 262.977 117.276 261.467C112.719 257.571 108.428 253.902 106.046 248.832C100.852 237.777 106.968 222.378 115.707 215.473C125.508 207.728 138.4 206.513 150.871 206.354C152.167 206.337 153.464 206.329 154.762 206.329C177.232 206.34 199.656 208.805 221.756 213.694C229.104 215.325 236.797 217.322 242.978 222.168C249.123 226.985 252.858 234.572 252.493 241.496C251.961 251.604 243.049 259.157 234.934 261.132C227.199 263.012 219.164 261.741 210.657 260.395C208.779 260.098 206.837 259.791 204.917 259.524C184.048 256.624 144.844 265.563 143.185 265.945L141.54 266.324L135.155 276.203C134.868 276.653 134.498 277.017 134.074 277.268C133.651 277.518 133.185 277.647 132.713 277.645Z" fill="#ABC4FF"/>
<path d="M225.645 228.335H137.439C136.93 228.335 136.441 228.091 136.082 227.659C135.722 227.226 135.519 226.639 135.519 226.027C135.519 225.415 135.722 224.828 136.082 224.395C136.441 223.963 136.93 223.719 137.439 223.719H225.645C226.154 223.719 226.642 223.963 227.002 224.395C227.362 224.828 227.564 225.415 227.564 226.027C227.564 226.639 227.362 227.226 227.002 227.659C226.642 228.091 226.154 228.335 225.645 228.335Z" fill="white"/>
<path d="M225.645 242.498H137.439C137.186 242.499 136.937 242.44 136.704 242.324C136.47 242.209 136.258 242.039 136.08 241.825C135.901 241.611 135.76 241.356 135.663 241.076C135.566 240.797 135.516 240.496 135.516 240.193C135.515 239.89 135.565 239.59 135.661 239.309C135.758 239.029 135.899 238.775 136.077 238.56C136.255 238.346 136.467 238.175 136.7 238.059C136.933 237.943 137.182 237.883 137.435 237.883H225.645C226.154 237.884 226.641 238.128 227.001 238.56C227.36 238.993 227.562 239.579 227.562 240.191C227.562 240.802 227.36 241.389 227.001 241.821C226.641 242.254 226.154 242.497 225.645 242.498Z" fill="white"/>
<path d="M147.718 256.662H137.439C136.93 256.661 136.443 256.417 136.083 255.985C135.724 255.552 135.522 254.966 135.522 254.354C135.522 253.743 135.724 253.156 136.083 252.724C136.443 252.291 136.93 252.047 137.439 252.047H147.718C148.226 252.047 148.714 252.291 149.073 252.724C149.433 253.156 149.634 253.743 149.634 254.354C149.634 254.966 149.433 255.552 149.073 255.985C148.714 256.417 148.226 256.661 147.718 256.662Z" fill="white"/>
<path d="M232.904 264.638C233.435 264.39 233.914 264.005 234.307 263.51C234.701 263.015 234.999 262.423 235.182 261.774C235.364 261.126 235.426 260.437 235.363 259.757C235.301 259.077 235.115 258.421 234.818 257.837L244.419 216.78L235.996 215.722L229.207 256.412C228.423 257.075 227.869 258.061 227.65 259.183C227.43 260.305 227.561 261.485 228.017 262.499C228.472 263.513 229.221 264.291 230.122 264.685C231.023 265.079 232.013 265.062 232.904 264.638Z" fill="#A0616A"/>
<path d="M245.839 194.242C245.839 194.242 247.895 194.331 246.879 199.428C246.065 203.508 243.077 229.103 240.741 234.207C241.246 234.753 241.585 235.486 241.705 236.289C241.825 237.093 241.719 237.922 241.404 238.645L232.095 234.029C231.322 231.448 231.92 229.105 232.8 228.897L233.887 221.433L235.49 196.391L244.354 194.146L245.839 194.242Z" fill="#E6E6E6"/>
<path d="M195.262 261.305C194.92 260.757 194.683 260.126 194.566 259.456C194.449 258.786 194.455 258.094 194.585 257.427C194.714 256.761 194.964 256.136 195.316 255.598C195.668 255.06 196.114 254.622 196.622 254.313L206.494 213.35L214.113 217.797L202.014 256.665C202.388 257.726 202.426 258.915 202.119 260.007C201.813 261.099 201.184 262.018 200.352 262.59C199.52 263.162 198.542 263.347 197.604 263.11C196.666 262.873 195.833 262.231 195.262 261.305Z" fill="#A0616A"/>
<path d="M215.183 193.307C215.183 193.307 213.398 192.077 212.024 197.051C210.923 201.032 202.223 224.667 201.967 230.485C201.298 230.629 200.689 231.036 200.234 231.642C199.779 232.248 199.505 233.019 199.455 233.834L209.388 235.821C211.178 234.12 211.698 231.75 211.043 231.016L213.396 223.986L223.03 201.7L216.487 194.168L215.183 193.307Z" fill="#E6E6E6"/>
<path d="M288.569 341.866L17.431 342C17.3169 342 17.2075 341.945 17.1269 341.848C17.0463 341.75 17.0011 341.619 17.0011 341.482C17.0011 341.344 17.0463 341.213 17.1269 341.116C17.2075 341.018 17.3169 340.964 17.431 340.963L288.569 340.829C288.683 340.83 288.792 340.885 288.873 340.982C288.953 341.079 288.999 341.211 288.999 341.348C288.999 341.485 288.953 341.617 288.873 341.714C288.792 341.811 288.683 341.866 288.569 341.866Z" fill="#CACACA"/>
<path d="M133.562 318.858C130.79 318.858 128.079 317.87 125.774 316.017C123.469 314.165 121.672 311.533 120.611 308.453C119.55 305.373 119.272 301.984 119.813 298.715C120.354 295.445 121.689 292.442 123.65 290.084C125.61 287.727 128.108 286.122 130.827 285.471C133.547 284.821 136.366 285.155 138.927 286.431C141.489 287.706 143.678 289.867 145.219 292.639C146.759 295.41 147.581 298.669 147.581 302.003C147.577 306.472 146.099 310.756 143.47 313.916C140.842 317.076 137.279 318.853 133.562 318.858ZM133.562 286.018C130.933 286.018 128.363 286.956 126.176 288.712C123.99 290.469 122.286 292.965 121.28 295.886C120.274 298.807 120.01 302.021 120.523 305.121C121.036 308.222 122.302 311.07 124.162 313.306C126.021 315.541 128.39 317.063 130.969 317.68C133.548 318.297 136.221 317.98 138.65 316.771C141.079 315.561 143.156 313.512 144.616 310.883C146.077 308.255 146.857 305.164 146.857 302.003C146.853 297.765 145.451 293.702 142.959 290.705C140.466 287.709 137.087 286.023 133.562 286.018Z" fill="white"/>
<path d="M132.54 308.565C132.511 308.565 132.482 308.564 132.453 308.562C132.195 308.548 131.944 308.466 131.715 308.323C131.487 308.18 131.287 307.98 131.129 307.735L128.846 304.208C128.702 303.985 128.596 303.73 128.534 303.458C128.472 303.186 128.455 302.902 128.484 302.622C128.513 302.342 128.587 302.072 128.703 301.827C128.819 301.581 128.974 301.366 129.16 301.193L129.242 301.116C129.427 300.942 129.639 300.815 129.865 300.74C130.091 300.665 130.328 300.644 130.561 300.679C130.794 300.714 131.019 300.804 131.223 300.944C131.427 301.083 131.606 301.27 131.75 301.493C131.865 301.671 132.011 301.817 132.177 301.92C132.344 302.024 132.527 302.084 132.715 302.095C132.902 302.106 133.089 302.068 133.263 301.984C133.437 301.9 133.594 301.772 133.723 301.608L138.357 295.726C138.684 295.313 139.133 295.072 139.606 295.057C140.08 295.042 140.539 295.253 140.884 295.644L140.96 295.731C141.13 295.925 141.267 296.157 141.363 296.415C141.458 296.673 141.511 296.95 141.517 297.232C141.523 297.514 141.483 297.795 141.399 298.059C141.315 298.322 141.189 298.563 141.028 298.768L133.837 307.894C133.67 308.106 133.469 308.275 133.246 308.39C133.023 308.506 132.783 308.565 132.54 308.565Z" fill="#ABC4FF"/>
</g>
<rect x="176" y="22" width="25" height="10" rx="5" fill="#306BF3"/>
<rect x="106" y="22" width="20" height="10" rx="5" fill="#ABC4FF"/>
<rect x="141" y="22" width="20" height="10" rx="5" fill="#ABC4FF"/>
<defs>
<clipPath id="clip0_7_561">
<rect width="272" height="248" fill="white" transform="translate(17 94)"/>
</clipPath>
</defs>
</svg>
