<svg width="14" height="24" viewBox="0 0 14 24" fill="none" xmlns="http://www.w3.org/2000/svg">
<path d="M2.3299 0C1.75052 0 1.21857 0.251158 0.834131 0.740757C0.453303 1.22575 0.269531 1.87711 0.269531 2.57143V21.4286C0.269531 22.1229 0.453303 22.7743 0.834131 23.2593C1.21857 23.7489 1.75052 24 2.3299 24H11.6701C12.2494 24 12.7814 23.7489 13.1658 23.2593C13.5466 22.7743 13.7304 22.1229 13.7304 21.4286V2.57143C13.7304 1.87711 13.5466 1.22575 13.1658 0.740757C12.7814 0.251158 12.2494 0 11.6701 0H2.3299Z" fill="#8FBFFA"/>
<path d="M6.99986 6.85728C7.78884 6.85728 8.42843 6.08977 8.42843 5.143C8.42843 4.19622 7.78884 3.42871 6.99986 3.42871C6.21088 3.42871 5.57129 4.19622 5.57129 5.143C5.57129 6.08977 6.21088 6.85728 6.99986 6.85728Z" fill="#2859C5"/>
</svg>
