<svg width="50" height="38" viewBox="0 0 50 38" fill="none" xmlns="http://www.w3.org/2000/svg">
<rect width="50" height="38" rx="10" fill="white"/>
<path d="M13.5817 20.9445C13.053 19.9941 12.7886 19.5188 12.7886 19C12.7886 18.4812 13.053 18.0059 13.5817 17.0555L15.5387 13.5375L17.6069 10.0837C18.1656 9.1506 18.445 8.68406 18.8943 8.42464C19.3436 8.16521 19.8874 8.15654 20.9748 8.1392L25 8.075L29.0252 8.1392C30.1126 8.15654 30.6564 8.16521 31.1057 8.42463C31.555 8.68406 31.8344 9.1506 32.3931 10.0837L34.4613 13.5375L36.4183 17.0555C36.947 18.0059 37.2114 18.4812 37.2114 19C37.2114 19.5188 36.947 19.9941 36.4183 20.9445L34.4613 24.4625L32.3931 27.9163C31.8344 28.8494 31.555 29.3159 31.1057 29.5754C30.6564 29.8348 30.1126 29.8435 29.0252 29.8608L25 29.925L20.9748 29.8608C19.8874 29.8435 19.3436 29.8348 18.8943 29.5754C18.445 29.3159 18.1656 28.8494 17.6069 27.9163L15.5387 24.4625L13.5817 20.9445Z" stroke="#33363F" stroke-width="2"/>
<circle cx="25" cy="19" r="3.75" stroke="#33363F" stroke-width="2"/>
</svg>
