<svg width="300" height="300" viewBox="0 0 300 300" fill="none" xmlns="http://www.w3.org/2000/svg">
<g clip-path="url(#clip0_28_538)">
<path d="M150 299.999C232.842 299.999 299.999 232.842 299.999 150C299.999 67.1572 232.842 0 150 0C67.1572 0 0 67.1572 0 150C0 232.842 67.1572 299.999 150 299.999Z" fill="#FDDF6D"/>
<path d="M182.143 277.855C99.3006 277.855 32.1438 210.698 32.1438 127.855C32.1438 83.5957 51.3167 43.8196 81.8058 16.3633C33.2447 41.1928 0 91.7132 0 149.999C0 232.841 67.1568 299.998 149.999 299.998C188.582 299.998 223.758 285.426 250.336 261.492C229.877 271.952 206.7 277.855 182.143 277.855Z" fill="#FCC56B"/>
<path d="M224.024 103.568C224.024 114.822 233.147 123.945 244.401 123.945C255.655 123.945 264.777 114.822 264.777 103.568H195.813" fill="white"/>
<path d="M119.798 103.568C119.798 114.822 128.921 123.945 140.175 123.945C151.428 123.945 160.551 114.822 160.551 103.568H91.5873" fill="white"/>
<path d="M85.5388 140.714C74.3996 140.714 65.368 149.744 65.368 160.885H105.708C105.708 149.744 96.678 140.714 85.5388 140.714Z" fill="#F9A880"/>
<path d="M261.474 138.011C250.334 138.011 241.303 147.041 241.303 158.182H281.643C281.644 147.041 272.614 138.011 261.474 138.011Z" fill="#F9A880"/>
<path d="M135.887 231.776C134.253 231.776 132.623 231.123 131.421 229.833C129.124 227.366 129.261 223.506 131.726 221.208C141.977 211.658 159.832 205.726 178.324 205.726C197.66 205.726 215.034 211.572 224.8 221.364C227.18 223.751 227.174 227.614 224.789 229.993C222.402 232.373 218.539 232.367 216.159 229.982C208.745 222.548 194.247 217.93 178.324 217.93C162.797 217.93 148.128 222.608 140.046 230.139C138.869 231.234 137.376 231.776 135.887 231.776Z" fill="#7F184C"/>
<path d="M264.777 97.4668H195.813C192.443 97.4668 189.711 100.199 189.711 103.569C189.711 106.938 192.444 109.671 195.813 109.671H218.631C221.395 121.339 231.9 130.047 244.401 130.047C259.001 130.047 270.879 118.168 270.879 103.569C270.88 100.198 268.147 97.4668 264.777 97.4668ZM244.401 117.843C238.712 117.843 233.789 114.498 231.497 109.671H257.304C255.012 114.498 250.09 117.843 244.401 117.843Z" fill="#7F184C"/>
<path d="M166.653 103.569C166.653 100.198 163.921 97.4668 160.551 97.4668H91.5874C88.2171 97.4668 85.4854 100.199 85.4854 103.569C85.4854 106.938 88.2177 109.671 91.5874 109.671H114.405C117.169 121.339 127.674 130.047 140.175 130.047C154.775 130.048 166.653 118.168 166.653 103.569ZM127.271 109.671H153.078C150.785 114.499 145.863 117.843 140.174 117.843C134.486 117.843 129.564 114.498 127.271 109.671Z" fill="#7F184C"/>
<path d="M208.324 54.5305C210.955 45.2349 199.593 33.8805 182.947 29.1697C166.301 24.459 150.675 28.1758 148.044 37.4715C145.413 46.7671 156.775 58.1215 173.421 62.8323C190.067 67.543 205.693 63.8262 208.324 54.5305Z" fill="#FCEB88"/>
</g>
<defs>
<clipPath id="clip0_28_538">
<rect width="300" height="300" fill="white"/>
</clipPath>
</defs>
</svg>
