<svg width="50" height="50" viewBox="0 0 50 50" fill="none" xmlns="http://www.w3.org/2000/svg">
<g clip-path="url(#clip0_98_353)">
<path d="M47.0919 30.1448V30.146C46.1649 34.1516 44.1413 37.955 41.02 41.0763C40.7751 41.3212 40.5268 41.5594 40.2728 41.7909C31.3516 49.9482 17.501 49.7099 8.86734 41.0763C-0.0124227 32.1977 -0.0124227 17.8022 8.86734 8.9236C17.7459 0.0449997 32.1414 0.0449997 41.02 8.9236C46.7773 14.6808 48.8009 22.7572 47.0919 30.1448Z" fill="#F7B239"/>
<path d="M12.9985 36.945C4.81958 28.7661 4.17514 15.9065 11.0644 6.9895C10.3014 7.57915 9.56703 8.22358 8.86703 8.92358C-0.0116655 17.8023 -0.0116655 32.1977 8.86703 41.0763C17.7457 49.955 32.1411 49.955 41.0198 41.0763C41.7197 40.3764 42.3641 39.6421 42.9539 38.879C34.037 45.7682 21.1773 45.1237 12.9985 36.945Z" fill="#E09B2D"/>
<path d="M34.5353 18.1257C32.4522 18.1257 30.5707 17.058 29.5022 15.2699C29.2635 14.8704 29.3939 14.3529 29.7934 14.1143C30.1931 13.8756 30.7104 14.006 30.9491 14.4055C31.7103 15.6796 33.0509 16.4405 34.5354 16.4405C36.0197 16.4405 37.3602 15.6797 38.1214 14.4055C38.3601 14.006 38.8776 13.8755 39.277 14.1143C39.6765 14.3531 39.8069 14.8704 39.5682 15.2699C38.4997 17.058 36.6183 18.1256 34.5353 18.1257Z" fill="#4D4D4D"/>
<path d="M15.3518 18.1257C13.2687 18.1257 11.3873 17.058 10.3189 15.2698C10.0802 14.8703 10.2106 14.3528 10.6101 14.1143C11.0098 13.8756 11.5271 14.006 11.7657 14.4055C12.527 15.6796 13.8675 16.4403 15.3518 16.4404C16.8361 16.4404 18.1768 15.6797 18.9381 14.4055C19.1768 14.0058 19.6946 13.8757 20.0937 14.1143C20.4932 14.353 20.6236 14.8703 20.3849 15.2698C19.3166 17.058 17.4348 18.1257 15.3518 18.1257Z" fill="#4D4D4D"/>
<path d="M11.9092 29.827C11.6935 29.827 11.4779 29.7448 11.3132 29.5802C10.9841 29.251 10.9841 28.7175 11.3132 28.3885C18.8291 20.8727 31.0578 20.8728 38.5734 28.3885C38.9025 28.7176 38.9025 29.2511 38.5734 29.5802C38.2442 29.9093 37.7107 29.9093 37.3816 29.5802C30.5233 22.7218 19.3637 22.7216 12.5051 29.5802C12.3406 29.7448 12.1249 29.827 11.9092 29.827Z" fill="#4D4D4D"/>
<path d="M21.1316 28.7535C20.7632 28.7535 20.4249 28.5102 20.3205 28.138C20.195 27.6899 20.4564 27.2247 20.9044 27.0991C23.5467 26.3583 26.3398 26.3585 28.9819 27.0991C29.4299 27.2247 29.6914 27.6899 29.5657 28.1381C29.4401 28.586 28.9747 28.8478 28.5269 28.722C26.1826 28.0646 23.7041 28.0646 21.3594 28.722C21.2834 28.7434 21.2069 28.7535 21.1316 28.7535Z" fill="#E09B2D"/>
<path d="M11.401 32.1154L17.0786 22.3335L6.07411 27.183C5.47997 26.2918 4.46601 25.7044 3.31454 25.7044C1.48408 25.7044 0 27.1884 0 29.0189C0 30.1246 0.541796 31.103 1.37383 31.7053C0.688768 32.5106 0.274511 33.5536 0.274511 34.6939C0.274511 37.2435 2.3414 39.3104 4.89101 39.3104C6.19022 39.3104 7.36336 38.7729 8.20223 37.9091C8.63504 38.1163 9.11971 38.2324 9.63152 38.2324C11.4621 38.2324 12.9461 36.7483 12.9461 34.9178C12.9463 33.7379 12.3293 32.7028 11.401 32.1154Z" fill="#E6E6E6"/>
<path d="M48.6257 31.7054C49.3111 32.511 49.7246 33.5537 49.7246 34.6941C49.7246 37.2435 47.6583 39.3098 45.1078 39.3098C43.809 39.3098 42.6359 38.7727 41.7966 37.9087C41.3639 38.1166 40.8797 38.2323 40.3674 38.2323C38.537 38.2323 37.0528 36.748 37.0528 34.9177C37.0528 33.738 37.6697 32.7031 38.5989 32.1155L32.9214 22.3335L43.9259 27.1829C44.5191 26.2919 45.5337 25.7043 46.6854 25.7043C48.2315 25.7043 49.5315 26.7639 49.8966 28.1964C49.964 28.4593 50.0001 28.7346 50.0001 29.0188C49.9998 30.1244 49.4571 31.1032 48.6257 31.7054Z" fill="#E6E6E6"/>
</g>
<defs>
<clipPath id="clip0_98_353">
<rect width="50" height="50" fill="white"/>
</clipPath>
</defs>
</svg>
