<svg width="50" height="50" viewBox="0 0 50 50" fill="none" xmlns="http://www.w3.org/2000/svg">
<path d="M33.3941 5H16.6258C9.34216 5 5 9.34 5 16.62V33.36C5 40.66 9.34216 45 16.6258 45H33.3741C40.6578 45 44.9999 40.66 44.9999 33.38V16.62C45.0199 9.34 40.6778 5 33.3941 5ZM34.7748 24.06C34.7748 24.84 34.1545 25.46 33.3741 25.46C32.5938 25.46 31.9734 24.84 31.9734 24.06V23.7L26.5307 29.14C26.2306 29.44 25.8304 29.58 25.4102 29.54C24.99 29.5 24.6098 29.28 24.3897 28.92L22.3486 25.88L17.5863 30.64C17.3061 30.92 16.966 31.04 16.6058 31.04C16.2456 31.04 15.8854 30.9 15.6253 30.64C15.085 30.1 15.085 29.22 15.6253 28.66L21.5883 22.7C21.8884 22.4 22.2886 22.26 22.7088 22.3C23.129 22.34 23.5092 22.56 23.7293 22.92L25.7703 25.96L29.9925 21.74H29.6323C28.8519 21.74 28.2316 21.12 28.2316 20.34C28.2316 19.56 28.8519 18.94 29.6323 18.94H33.3541C33.5342 18.94 33.7143 18.98 33.8944 19.04C34.2346 19.18 34.5147 19.46 34.6548 19.8C34.7348 19.98 34.7548 20.16 34.7548 20.34V24.06H34.7748Z" fill="#1C274C"/>
</svg>
