<svg width="50" height="50" viewBox="0 0 50 50" fill="none" xmlns="http://www.w3.org/2000/svg">
<g clip-path="url(#clip0_29_594)">
<path d="M25 50C38.8071 50 50 38.8071 50 25C50 11.1929 38.8071 0 25 0C11.1929 0 0 11.1929 0 25C0 38.8071 11.1929 50 25 50Z" fill="#ABC4FF"/>
<g opacity="0.2">
<path d="M14.0625 21.875H10.9375C9.21875 21.875 7.8125 23.2812 7.8125 25V35.1562C7.8125 36.875 9.21875 38.2812 10.9375 38.2812H17.1875V25C17.1875 23.2812 15.7812 21.875 14.0625 21.875Z" fill="#231F20"/>
<path d="M26.5625 10.1562H23.4375C21.7188 10.1562 20.3125 11.5625 20.3125 13.2812V38.2812H29.6875V13.2812C29.6875 11.5625 28.2812 10.1562 26.5625 10.1562Z" fill="#231F20"/>
<path d="M39.0625 25.7812H35.9375C34.2188 25.7812 32.8125 27.1875 32.8125 28.9062V38.2812H39.0625C40.7812 38.2812 42.1875 36.875 42.1875 35.1562V28.9062C42.1875 27.1875 40.7812 25.7812 39.0625 25.7812Z" fill="#231F20"/>
</g>
<path d="M14.0625 20.3125H10.9375C9.21875 20.3125 7.8125 21.7188 7.8125 23.4375V33.5938C7.8125 35.3125 9.21875 36.7188 10.9375 36.7188H17.1875V23.4375C17.1875 21.7188 15.7812 20.3125 14.0625 20.3125Z" fill="#10182F"/>
<path d="M26.5625 8.59375H23.4375C21.7188 8.59375 20.3125 10 20.3125 11.7188V36.7188H29.6875V11.7188C29.6875 10 28.2812 8.59375 26.5625 8.59375Z" fill="#306BF3"/>
<path d="M39.0625 24.2188H35.9375C34.2188 24.2188 32.8125 25.625 32.8125 27.3438V36.7188H39.0625C40.7812 36.7188 42.1875 35.3125 42.1875 33.5938V27.3438C42.1875 25.625 40.7812 24.2188 39.0625 24.2188Z" fill="white"/>
</g>
<defs>
<clipPath id="clip0_29_594">
<rect width="50" height="50" fill="white"/>
</clipPath>
</defs>
</svg>
