<svg width="25" height="25" viewBox="0 0 25 25" fill="none" xmlns="http://www.w3.org/2000/svg">
<g clip-path="url(#clip0_208_458)">
<path d="M12.5108 0.0109863C12.5074 0.0109863 12.503 0.0115381 12.4997 0.0115381C12.4959 0.0115381 12.4926 0.0109863 12.4887 0.0109863C5.59191 0.0109863 0 5.60234 0 12.5002C0 19.397 5.59191 24.9889 12.4887 24.9889C12.4926 24.9889 12.4959 24.9889 12.4997 24.9889C12.503 24.9889 12.5074 24.9889 12.5108 24.9889C19.4075 24.9889 24.9994 19.397 24.9994 12.5002C25 5.60234 19.4081 0.0109863 12.5108 0.0109863ZM12.5108 21.4136C12.5074 21.4136 12.503 21.4131 12.4997 21.4131C12.4959 21.4131 12.4926 21.4136 12.4887 21.4136C11.3598 21.4136 10.4445 20.4988 10.4445 19.3694C10.4445 18.2411 11.3598 17.3263 12.4887 17.3263C12.4926 17.3263 12.4959 17.3263 12.4997 17.3263C12.503 17.3263 12.5074 17.3263 12.5108 17.3263C13.6391 17.3263 14.5555 18.2411 14.5555 19.3694C14.5555 20.4983 13.6407 21.4136 12.5108 21.4136ZM15.4422 5.83628C15.3086 7.87607 14.3762 13.9425 14.3762 13.9425C14.3762 14.9654 13.5381 15.7941 12.5152 15.7941C12.5097 15.7941 12.5041 15.7941 12.4992 15.7941C12.4942 15.7941 12.4881 15.7941 12.4832 15.7941C11.4608 15.7941 10.6227 14.9643 10.6227 13.9425C10.6227 13.9425 9.6908 7.87607 9.55728 5.83628C9.49107 4.81501 10.2734 2.91867 12.4837 2.91867C12.4892 2.91867 12.4948 2.91922 12.4997 2.91922C12.5047 2.91922 12.5102 2.91867 12.5157 2.91867C14.7255 2.91867 15.5089 4.81501 15.4422 5.83628Z" fill="#EB8900" stroke="#EB8900" stroke-width="1.41246"/>
</g>
<defs>
<clipPath id="clip0_208_458">
<rect width="25" height="25" fill="white"/>
</clipPath>
</defs>
</svg>
